<?xml version="1.0" encoding="UTF-8"?>
<!DOCTYPE svg PUBLIC "-//W3C//DTD SVG 1.1//EN" "http://www.w3.org/Graphics/SVG/1.1/DTD/svg11.dtd">
<svg xmlns="http://www.w3.org/2000/svg" version="1.1" width="6000px" height="4800px" style="shape-rendering:geometricPrecision; text-rendering:geometricPrecision; image-rendering:optimizeQuality; fill-rule:evenodd; clip-rule:evenodd" xmlns:xlink="http://www.w3.org/1999/xlink">
<g><path style="opacity:0.376" fill="#00acee" d="M -0.5,-0.5 C 1999.5,-0.5 3999.5,-0.5 5999.5,-0.5C 5999.5,1599.5 5999.5,3199.5 5999.5,4799.5C 3999.5,4799.5 1999.5,4799.5 -0.5,4799.5C -0.5,3199.5 -0.5,1599.5 -0.5,-0.5 Z"/></g>
<g><path style="opacity:1" fill="#010204" d="M 1797.5,1758.5 C 1788.52,1782.09 1781.85,1806.42 1777.5,1831.5C 1777.16,1836.71 1776,1841.71 1774,1846.5C 1762.4,1860.1 1750.06,1873.1 1737,1885.5C 1732.68,1890.14 1728.85,1895.14 1725.5,1900.5C 1733.92,1902.08 1740.25,1906.58 1744.5,1914C 1751.32,1918.94 1758.65,1919.77 1766.5,1916.5C 1766.83,1916.83 1767.17,1917.17 1767.5,1917.5C 1762.09,1922.62 1760.59,1928.62 1763,1935.5C 1764.58,1937.04 1766.41,1938.21 1768.5,1939C 1773.19,1939.29 1777.86,1939.29 1782.5,1939C 1771.03,1943.96 1759.03,1946.63 1746.5,1947C 1722.74,1948.84 1699.4,1946.51 1676.5,1940C 1672.59,1937.52 1672.59,1934.86 1676.5,1932C 1681.83,1930.67 1687.17,1929.33 1692.5,1928C 1696.66,1924.8 1696.33,1922.13 1691.5,1920C 1687.43,1919.34 1683.43,1919.68 1679.5,1921C 1670.82,1924.01 1662.16,1927.01 1653.5,1930C 1644.2,1932.12 1642.36,1929.62 1648,1922.5C 1652.06,1918.94 1655.56,1914.94 1658.5,1910.5C 1653.71,1909.36 1649.04,1909.86 1644.5,1912C 1634.99,1917.59 1625.33,1922.92 1615.5,1928C 1610.91,1929.48 1606.24,1930.65 1601.5,1931.5C 1605.29,1934.79 1608.96,1938.29 1612.5,1942C 1628.71,1953.61 1644.38,1965.94 1659.5,1979C 1667.67,1987.18 1674.51,1996.35 1680,2006.5C 1685.57,2020.02 1685.9,2033.69 1681,2047.5C 1670.09,2026.02 1658.43,2005.02 1646,1984.5C 1623.82,1953.55 1593.99,1941.39 1556.5,1948C 1547.62,1954.91 1542.79,1964.08 1542,1975.5C 1540.82,1995.1 1543.49,2014.1 1550,2032.5C 1561.44,2023.28 1574.44,2017.94 1589,2016.5C 1592.92,2016.45 1596.75,2016.95 1600.5,2018C 1606.91,2022.07 1613.58,2025.73 1620.5,2029C 1629.18,2027.08 1637.18,2028.58 1644.5,2033.5C 1641.79,2041.03 1636.45,2045.53 1628.5,2047C 1621.38,2048.04 1614.21,2048.54 1607,2048.5C 1589.84,2047.62 1572.67,2047.45 1555.5,2048C 1545.86,2050.31 1539.36,2056.14 1536,2065.5C 1516.83,2102.82 1503.5,2142.16 1496,2183.5C 1481.9,2256.33 1480.9,2329.33 1493,2402.5C 1498.45,2430.67 1507.12,2457.67 1519,2483.5C 1513.73,2476.95 1506.89,2473.11 1498.5,2472C 1475.79,2468.54 1454.46,2472.54 1434.5,2484C 1433.48,2485.05 1433.32,2486.22 1434,2487.5C 1435.17,2488.67 1436.33,2489.83 1437.5,2491C 1443.08,2492.19 1448.75,2492.85 1454.5,2493C 1441.03,2508.8 1426.53,2523.63 1411,2537.5C 1400.89,2547.38 1393.56,2559.05 1389,2572.5C 1388.2,2579.55 1388.37,2586.55 1389.5,2593.5C 1373.66,2599.09 1359.32,2607.25 1346.5,2618C 1337.57,2623.75 1327.91,2627.75 1317.5,2630C 1314.77,2630.82 1312.11,2630.65 1309.5,2629.5C 1314.41,2619.08 1321.41,2610.25 1330.5,2603C 1340.61,2595.53 1350.44,2587.69 1360,2579.5C 1364.56,2562.15 1370.89,2545.49 1379,2529.5C 1384.72,2519.45 1392.72,2511.78 1403,2506.5C 1404.23,2500.12 1402.06,2495.29 1396.5,2492C 1394.62,2491.42 1392.79,2491.59 1391,2492.5C 1389.74,2492.15 1389.41,2491.48 1390,2490.5C 1397.41,2482.54 1406.24,2476.71 1416.5,2473C 1432.5,2468.33 1448.5,2463.67 1464.5,2459C 1470.94,2456.61 1476.94,2453.45 1482.5,2449.5C 1483.65,2447.24 1483.81,2444.9 1483,2442.5C 1477.33,2420.83 1471.67,2399.17 1466,2377.5C 1464.18,2369.59 1462.84,2361.59 1462,2353.5C 1457.49,2349.83 1452.32,2347.66 1446.5,2347C 1437.17,2346.5 1427.84,2346.33 1418.5,2346.5C 1418.78,2337.71 1423.11,2331.88 1431.5,2329C 1439.21,2327.16 1446.88,2325.16 1454.5,2323C 1457.56,2321.94 1460.06,2320.11 1462,2317.5C 1462.83,2297.93 1462.66,2278.43 1461.5,2259C 1449.75,2258.12 1438.08,2258.78 1426.5,2261C 1405.57,2266.86 1384.91,2273.53 1364.5,2281C 1351.45,2285.11 1338.11,2286.44 1324.5,2285C 1319.16,2284.44 1314.16,2282.94 1309.5,2280.5C 1319.7,2266.8 1332.7,2256.63 1348.5,2250C 1358.28,2245.78 1368.28,2242.11 1378.5,2239C 1406.31,2232.21 1433.64,2223.88 1460.5,2214C 1468.32,2210.59 1475.65,2206.43 1482.5,2201.5C 1485.89,2184.11 1479.55,2171.61 1463.5,2164C 1452.56,2159.53 1441.89,2154.53 1431.5,2149C 1424.41,2143.43 1420.07,2136.26 1418.5,2127.5C 1438.17,2127.67 1457.84,2127.5 1477.5,2127C 1498.59,2110.33 1510.42,2088.5 1513,2061.5C 1514.24,2042.18 1515.24,2022.85 1516,2003.5C 1517.24,1968.48 1533.08,1942.65 1563.5,1926C 1581.99,1916.17 1601.32,1908.5 1621.5,1903C 1654.29,1895.05 1686.63,1885.38 1718.5,1874C 1731.45,1868.62 1742.95,1861.12 1753,1851.5C 1773.78,1742.46 1813.78,1641.13 1873,1547.5C 1915.43,1481.98 1961.76,1419.32 2012,1359.5C 2015.02,1354.73 2018.35,1354.4 2022,1358.5C 2023.27,1366.73 2023.94,1375.06 2024,1383.5C 2027.5,1378.67 2031.67,1374.5 2036.5,1371C 2046.53,1365.32 2056.53,1359.65 2066.5,1354C 2049.31,1306.37 2039.81,1257.21 2038,1206.5C 2036.93,1168.46 2037.59,1130.46 2040,1092.5C 2041.7,1081.21 2044.86,1070.38 2049.5,1060C 2044.48,1030.55 2049.31,1002.72 2064,976.5C 2064.2,966.13 2064.86,955.796 2066,945.5C 2070.21,931.538 2075.21,917.871 2081,904.5C 2081.67,888.167 2081.67,871.833 2081,855.5C 2076.67,796.574 2075,737.574 2076,678.5C 2077.52,647.913 2082.52,617.913 2091,588.5C 2095.08,576.452 2102.25,574.286 2112.5,582C 2116.62,587.077 2120.12,592.577 2123,598.5C 2131.55,620.827 2140.89,642.827 2151,664.5C 2154.69,670.902 2159.53,676.236 2165.5,680.5C 2172.77,668.116 2177.6,654.783 2180,640.5C 2183.51,616.565 2186.51,592.565 2189,568.5C 2190.44,554.855 2194.11,541.855 2200,529.5C 2202.87,526.296 2206.04,523.463 2209.5,521C 2214.84,519.466 2219.34,520.633 2223,524.5C 2226.41,535.719 2230.41,546.719 2235,557.5C 2249.22,588.599 2262.88,619.933 2276,651.5C 2287.35,681.092 2292.01,711.759 2290,743.5C 2292.5,758.159 2298.5,771.159 2308,782.5C 2324.27,800.446 2343.1,814.946 2364.5,826C 2369.7,830.865 2374.53,836.032 2379,841.5C 2386.62,852.119 2394.62,862.452 2403,872.5C 2414.77,905.05 2431.44,934.717 2453,961.5C 2478.14,990.298 2502.14,1019.96 2525,1050.5C 2536.99,1068.14 2547.16,1086.81 2555.5,1106.5C 2567.75,1110.75 2580.09,1114.92 2592.5,1119C 2605.27,1124.11 2614.44,1132.94 2620,1145.5C 2620.49,1147.13 2620.66,1148.8 2620.5,1150.5C 2659.85,1145.33 2698.85,1138.33 2737.5,1129.5C 2738.5,1124.54 2738.66,1119.54 2738,1114.5C 2735.69,1110.42 2732.19,1107.92 2727.5,1107C 2723.5,1106.83 2719.5,1106.67 2715.5,1106.5C 2704.17,1107.3 2692.84,1107.47 2681.5,1107C 2677.52,1106.19 2674.52,1104.02 2672.5,1100.5C 2689.47,1094.18 2706.14,1087.02 2722.5,1079C 2729.63,1075.79 2736.96,1073.29 2744.5,1071.5C 2743.91,1068.39 2742.24,1065.89 2739.5,1064C 2729.98,1061.35 2720.32,1059.35 2710.5,1058C 2702.94,1055.04 2699.94,1049.54 2701.5,1041.5C 2715.5,1041.5 2729.5,1041.5 2743.5,1041.5C 2743.5,1036.17 2743.5,1030.83 2743.5,1025.5C 2716.94,1024.52 2690.94,1020.19 2665.5,1012.5C 2669.45,1010.57 2673.45,1008.74 2677.5,1007C 2679.56,1005.28 2681.22,1003.28 2682.5,1001C 2682.14,999.775 2681.64,998.609 2681,997.5C 2674.7,992.199 2668.7,986.532 2663,980.5C 2660.18,976.876 2658.51,972.876 2658,968.5C 2664.87,970.455 2671.7,972.622 2678.5,975C 2691.59,981.879 2704.92,988.212 2718.5,994C 2727.26,996.951 2736.26,998.118 2745.5,997.5C 2747.03,988.434 2744.86,980.434 2739,973.5C 2725.37,961.534 2712.03,949.201 2699,936.5C 2685.99,918.787 2681.99,899.121 2687,877.5C 2689.23,867.589 2692.23,857.922 2696,848.5C 2707.59,822.981 2718.92,797.315 2730,771.5C 2748.22,714.412 2767.55,657.745 2788,601.5C 2817.61,521.234 2859.28,448.234 2913,382.5C 2933.24,359.334 2955.74,338.834 2980.5,321C 2990.73,314.258 2999.9,315.424 3008,324.5C 3019.74,340.694 3027.4,358.694 3031,378.5C 3036.46,408.609 3040.13,438.942 3042,469.5C 3047.18,570.213 3053.18,670.879 3060,771.5C 3062.61,811.597 3061.61,851.597 3057,891.5C 3053.4,919.982 3044.06,946.315 3029,970.5C 3015.43,988.367 2998.26,1001.53 2977.5,1010C 2966.05,1014.11 2954.39,1017.45 2942.5,1020C 2945.66,1024.58 2949.99,1026.41 2955.5,1025.5C 2967.54,1023.32 2979.54,1020.82 2991.5,1018C 2999.29,1017.08 3006.96,1017.58 3014.5,1019.5C 3014.24,1027.93 3009.9,1032.76 3001.5,1034C 2993.84,1034.5 2986.17,1034.67 2978.5,1034.5C 2978.33,1038.17 2979.99,1040.67 2983.5,1042C 2989.83,1042.23 2996.16,1042.07 3002.5,1041.5C 3006.59,1041.45 3010.59,1041.95 3014.5,1043C 3015.89,1044.74 3016.56,1046.74 3016.5,1049C 3016.08,1051.5 3015.75,1054 3015.5,1056.5C 3006.85,1055.53 2998.19,1055.37 2989.5,1056C 2976.23,1059.15 2962.9,1061.98 2949.5,1064.5C 2950.7,1067.87 2953.03,1070.03 2956.5,1071C 2967.73,1071.77 2978.9,1071.27 2990,1069.5C 2993.53,1069.64 2997.03,1069.97 3000.5,1070.5C 3000.16,1078.34 2996.16,1083.18 2988.5,1085C 2972.16,1085.31 2955.83,1085.31 2939.5,1085C 2923.54,1089.93 2923.54,1094.93 2939.5,1100C 2962.17,1100.24 2984.83,1100.07 3007.5,1099.5C 3006.93,1103.8 3004.93,1107.3 3001.5,1110C 2997.5,1112.42 2993.16,1114.09 2988.5,1115C 2973,1115.47 2957.5,1115.3 2942,1114.5C 2931.82,1113.07 2922.49,1115.07 2914,1120.5C 2913.48,1122.29 2913.81,1123.96 2915,1125.5C 2923.49,1135.07 2934.16,1139.41 2947,1138.5C 2961.11,1136.68 2975.28,1136.18 2989.5,1137C 3028.3,1143.05 3066.3,1152.38 3103.5,1165C 3143.4,1178.41 3183.07,1192.41 3222.5,1207C 3240.08,1212.8 3257.74,1218.3 3275.5,1223.5C 3278.25,1221.96 3279.09,1219.62 3278,1216.5C 3274.88,1211.05 3270.71,1206.55 3265.5,1203C 3246.68,1193.76 3227.68,1184.76 3208.5,1176C 3203.31,1172.73 3203.98,1170.39 3210.5,1169C 3215.5,1168.33 3220.5,1168.33 3225.5,1169C 3242.24,1172.52 3258.91,1176.35 3275.5,1180.5C 3275.83,1180.17 3276.17,1179.83 3276.5,1179.5C 3269.27,1169.77 3260.6,1161.6 3250.5,1155C 3232.42,1144.63 3213.76,1135.29 3194.5,1127C 3178.06,1119.13 3164.4,1107.96 3153.5,1093.5C 3170.27,1091.87 3185.93,1095.37 3200.5,1104C 3214.32,1113.24 3228.98,1120.91 3244.5,1127C 3247.76,1128.04 3251.09,1128.54 3254.5,1128.5C 3250.79,1117.61 3244.46,1108.44 3235.5,1101C 3224.17,1093 3212.83,1085 3201.5,1077C 3192.77,1069.62 3186.44,1060.62 3182.5,1050C 3196.51,1052 3209.17,1057.33 3220.5,1066C 3224.5,1069.33 3228.5,1072.67 3232.5,1076C 3246.17,1090.33 3259.83,1104.67 3273.5,1119C 3274.93,1119.47 3276.1,1120.3 3277,1121.5C 3283.99,1106.7 3284.32,1091.7 3278,1076.5C 3275.33,1071.83 3272.67,1067.17 3270,1062.5C 3259.61,1049.11 3249.61,1035.45 3240,1021.5C 3226.27,1000.6 3222.27,977.932 3228,953.5C 3231.21,938.212 3236.21,923.545 3243,909.5C 3250.9,892.691 3259.57,876.358 3269,860.5C 3287.4,831.096 3305.4,801.43 3323,771.5C 3336.55,742.402 3349.55,713.069 3362,683.5C 3373.74,650.6 3386.08,617.933 3399,585.5C 3458.55,476.329 3527.88,373.995 3607,278.5C 3626.4,255.432 3646.9,233.265 3668.5,212C 3674.4,206.971 3680.73,206.304 3687.5,210C 3708.48,228.434 3723.65,250.934 3733,277.5C 3744.8,312.896 3752.14,349.229 3755,386.5C 3762.18,481.535 3769.85,576.535 3778,671.5C 3784.8,759.757 3786.13,848.09 3782,936.5C 3779.37,992.886 3770.37,1048.22 3755,1102.5C 3748.76,1124.8 3739.93,1145.97 3728.5,1166C 3716.38,1170.11 3704.04,1173.45 3691.5,1176C 3661.47,1179.85 3631.47,1183.85 3601.5,1188C 3588.21,1190.54 3575.54,1194.88 3563.5,1201C 3562.98,1201.56 3562.64,1202.23 3562.5,1203C 3566.2,1208.36 3571.2,1212.02 3577.5,1214C 3590.07,1216.32 3602.73,1216.98 3615.5,1216C 3629.18,1214.89 3642.84,1213.72 3656.5,1212.5C 3660.92,1212.44 3665.25,1212.94 3669.5,1214C 3670.87,1216.38 3670.53,1218.55 3668.5,1220.5C 3664.62,1222.29 3660.62,1223.79 3656.5,1225C 3628.6,1228.84 3600.6,1231.84 3572.5,1234C 3566.6,1234.72 3560.94,1236.22 3555.5,1238.5C 3565.35,1244.4 3576.02,1248.23 3587.5,1250C 3617.62,1253.08 3647.62,1257.08 3677.5,1262C 3683.49,1264 3689.49,1266 3695.5,1268C 3699.67,1269.58 3703.34,1271.92 3706.5,1275C 3691.94,1280.88 3676.77,1283.38 3661,1282.5C 3655.17,1282.33 3649.33,1282.17 3643.5,1282C 3622.22,1278.96 3600.89,1276.29 3579.5,1274C 3563.82,1273.32 3548.15,1273.49 3532.5,1274.5C 3535.38,1253.25 3537.54,1231.92 3539,1210.5C 3540.33,1200.19 3542.83,1190.19 3546.5,1180.5C 3554.8,1178.61 3563.13,1176.77 3571.5,1175C 3605.27,1170.73 3638.94,1165.73 3672.5,1160C 3689.41,1156.2 3705.75,1150.7 3721.5,1143.5C 3737.61,1113.79 3747.78,1082.12 3752,1048.5C 3756.63,1011.64 3759.63,974.638 3761,937.5C 3769.33,758.797 3761.66,580.797 3738,403.5C 3731.58,359.352 3719.92,316.685 3703,275.5C 3697.76,264.02 3691.76,253.02 3685,242.5C 3682.56,239.388 3679.56,237.055 3676,235.5C 3662.04,244.843 3649.38,255.843 3638,268.5C 3623.57,284.922 3609.91,301.922 3597,319.5C 3563.49,369.181 3529.49,418.515 3495,467.5C 3470.09,503.652 3446.42,540.652 3424,578.5C 3416.39,593.377 3409.06,608.377 3402,623.5C 3380.33,677.5 3358.67,731.5 3337,785.5C 3331.26,797.323 3325.26,808.99 3319,820.5C 3297.54,855.074 3277.88,890.74 3260,927.5C 3254.92,939.068 3251.26,951.068 3249,963.5C 3248.15,972.886 3248.48,982.219 3250,991.5C 3252.41,999.733 3255.41,1007.73 3259,1015.5C 3271.83,1036.51 3285.17,1057.17 3299,1077.5C 3309.64,1095.38 3315.64,1114.72 3317,1135.5C 3317.67,1147.5 3317.67,1159.5 3317,1171.5C 3310.83,1208.51 3304.66,1245.51 3298.5,1282.5C 3273.27,1294.95 3246.61,1299.95 3218.5,1297.5C 3214.67,1285.84 3218.83,1280.5 3231,1281.5C 3239.83,1282.35 3248.66,1282.52 3257.5,1282C 3261.31,1280.39 3262.64,1277.73 3261.5,1274C 3254.49,1269.66 3246.83,1267.33 3238.5,1267C 3220.32,1266.88 3202.16,1267.38 3184,1268.5C 3178.5,1268.17 3173,1267.83 3167.5,1267.5C 3174.71,1258.73 3184.04,1253.89 3195.5,1253C 3216.5,1252.41 3237.5,1252.58 3258.5,1253.5C 3264.17,1253.33 3269.83,1253.17 3275.5,1253C 3230.83,1230.66 3185.5,1209.66 3139.5,1190C 3067.12,1160.6 2991.78,1146.27 2913.5,1147C 2807.99,1145.24 2703.32,1153.74 2599.5,1172.5C 2599.54,1176.09 2601.21,1178.59 2604.5,1180C 2611.62,1180.8 2618.62,1182.13 2625.5,1184C 2627.62,1185.17 2628.28,1186.67 2627.5,1188.5C 2615.43,1198.2 2601.77,1204.7 2586.5,1208C 2562.34,1212.32 2538,1215.32 2513.5,1217C 2493.63,1218.96 2475.29,1225.29 2458.5,1236C 2437.83,1249.33 2417.17,1262.67 2396.5,1276C 2391.51,1278.55 2386.35,1280.72 2381,1282.5C 2386.44,1254.05 2402.6,1234.22 2429.5,1223C 2435.09,1220.8 2440.76,1218.8 2446.5,1217C 2470.34,1211.36 2494.34,1206.36 2518.5,1202C 2534.51,1198.49 2549.51,1192.49 2563.5,1184C 2577.78,1173.89 2587.11,1160.39 2591.5,1143.5C 2589.85,1138.01 2586.51,1133.85 2581.5,1131C 2570.35,1127.59 2559.18,1124.42 2548,1121.5C 2537.71,1098.92 2525.38,1077.59 2511,1057.5C 2487.24,1025.65 2463.24,993.987 2439,962.5C 2422.5,936.834 2406.5,910.834 2391,884.5C 2374.06,855.891 2351.89,832.058 2324.5,813C 2310.16,804.327 2294.82,798.16 2278.5,794.5C 2279.21,753.542 2273.37,713.542 2261,674.5C 2249.26,641.293 2237.93,607.96 2227,574.5C 2225.67,567.888 2224.67,561.222 2224,554.5C 2223.98,549.423 2221.48,546.756 2216.5,546.5C 2213.89,546.556 2211.72,547.556 2210,549.5C 2207.15,554.87 2205.15,560.537 2204,566.5C 2199.12,599.036 2193.12,631.369 2186,663.5C 2176.09,721.958 2165.42,780.292 2154,838.5C 2152.13,847.635 2149.8,856.635 2147,865.5C 2141.74,845.671 2141.08,825.671 2145,805.5C 2148.98,784.945 2152.31,764.278 2155,743.5C 2158.48,719.106 2154.48,696.106 2143,674.5C 2132.48,660.297 2123.15,645.297 2115,629.5C 2112.56,622.25 2110.9,614.917 2110,607.5C 2099.52,626.421 2093.52,646.754 2092,668.5C 2091.33,687.5 2091.33,706.5 2092,725.5C 2095.13,760.822 2098.13,796.155 2101,831.5C 2101.67,844.833 2101.67,858.167 2101,871.5C 2100.76,879.601 2099.76,887.601 2098,895.5C 2091.59,910.648 2084.92,925.648 2078,940.5C 2074.34,950.319 2073.68,960.319 2076,970.5C 2077.41,973.661 2079.08,976.661 2081,979.5C 2086.04,983.94 2090.38,988.94 2094,994.5C 2096.1,998.221 2097.26,1002.22 2097.5,1006.5C 2095.05,1021.98 2090.88,1036.98 2085,1051.5C 2083.83,1052.67 2082.67,1053.83 2081.5,1055C 2075.4,1057.25 2069.74,1060.25 2064.5,1064C 2061.39,1067.06 2058.89,1070.56 2057,1074.5C 2048.83,1109.38 2046.16,1144.71 2049,1180.5C 2047.77,1222.35 2054.77,1262.69 2070,1301.5C 2082.68,1330.89 2101.18,1355.89 2125.5,1376.5C 2147.44,1358.19 2171.11,1342.35 2196.5,1329C 2231.35,1311.24 2266.68,1294.57 2302.5,1279C 2324.13,1268.85 2345.13,1257.69 2365.5,1245.5C 2366.22,1255.52 2363.38,1264.52 2357,1272.5C 2345.63,1283.11 2332.79,1291.61 2318.5,1298C 2297.15,1306.51 2276.15,1315.84 2255.5,1326C 2245.36,1331.47 2236.36,1338.47 2228.5,1347C 2225.17,1347.67 2221.83,1347.67 2218.5,1347C 2214.42,1342.45 2214.75,1338.12 2219.5,1334C 2208.56,1336.47 2198.56,1341.13 2189.5,1348C 2176.68,1358.57 2163.68,1368.91 2150.5,1379C 2138.34,1387.05 2125.01,1391.05 2110.5,1391C 2106.51,1389.55 2104.01,1386.72 2103,1382.5C 2102.5,1378.51 2102.33,1374.51 2102.5,1370.5C 2092.59,1372.62 2083.93,1377.12 2076.5,1384C 2067.2,1392.96 2059.04,1402.79 2052,1413.5C 2049.62,1416.04 2047.12,1418.38 2044.5,1420.5C 2041.9,1419.73 2040.06,1418.06 2039,1415.5C 2038.33,1409.17 2038.33,1402.83 2039,1396.5C 2040.14,1391.5 2040.81,1386.5 2041,1381.5C 2038.33,1384.83 2035.67,1388.17 2033,1391.5C 2025.34,1406.83 2016.67,1421.49 2007,1435.5C 2000.67,1442.43 1993.17,1446.77 1984.5,1448.5C 1987.87,1434.04 1991.37,1419.71 1995,1405.5C 1980.51,1422.32 1967.18,1439.98 1955,1458.5C 1895.45,1545.24 1845.45,1637.58 1805,1735.5C 1802.39,1743.17 1799.89,1750.83 1797.5,1758.5 Z"/></g>
<g><path style="opacity:1" fill="#00acee" d="M 2988.5,331.5 C 2992.91,330.618 2996.41,331.952 2999,335.5C 3002.58,341.282 3004.58,347.615 3005,354.5C 3020.11,472.02 3029.44,590.02 3033,708.5C 3034.88,782.497 3036.22,856.497 3037,930.5C 3035.04,936.417 3032.04,941.75 3028,946.5C 3014.54,960.307 2999.37,971.807 2982.5,981C 2967.66,988.922 2952.66,996.589 2937.5,1004C 2929.07,1008.77 2920.9,1013.94 2913,1019.5C 2917.48,1059.08 2908.98,1095.58 2887.5,1129C 2875.61,1130.73 2863.61,1131.73 2851.5,1132C 2819.13,1133 2786.79,1132.5 2754.5,1130.5C 2761.47,1115.24 2757.47,1104.07 2742.5,1097C 2740.98,1095.65 2739.65,1094.15 2738.5,1092.5C 2743.46,1088.01 2749.13,1084.51 2755.5,1082C 2763.05,1075.09 2764.55,1066.93 2760,1057.5C 2759.33,1051.5 2759.33,1045.5 2760,1039.5C 2762.8,1030.1 2765.8,1020.77 2769,1011.5C 2770.77,997.799 2767.43,985.465 2759,974.5C 2748.37,962.2 2737.37,950.2 2726,938.5C 2711.47,922.229 2705.8,903.229 2709,881.5C 2710.53,873.036 2712.53,864.703 2715,856.5C 2727.08,822.6 2739.74,788.934 2753,755.5C 2783.62,648.96 2827.28,548.293 2884,453.5C 2909.61,412.531 2939.78,375.031 2974.5,341C 2979.07,337.579 2983.74,334.412 2988.5,331.5 Z"/></g>
<g><path style="opacity:1" fill="#03070a" d="M 2163.5,950.5 C 2199.76,948.255 2217.76,965.422 2217.5,1002C 2215.5,1037.33 2196.83,1053.33 2161.5,1050C 2145.68,1047.85 2135.84,1039.01 2132,1023.5C 2128.54,1002.69 2132.21,983.358 2143,965.5C 2148.61,958.634 2155.44,953.634 2163.5,950.5 Z"/></g>
<g><path style="opacity:1" fill="#00abec" d="M 2167.5,958.5 C 2180.48,955.764 2190.65,959.764 2198,970.5C 2208.25,990.004 2210.25,1010.34 2204,1031.5C 2195.86,1042.56 2184.86,1047.22 2171,1045.5C 2155.25,1046.76 2145.25,1039.76 2141,1024.5C 2137.3,1005.33 2140.3,987.327 2150,970.5C 2154.81,964.859 2160.64,960.859 2167.5,958.5 Z"/></g>
<g><path style="opacity:1" fill="#010304" d="M 2166.5,978.5 C 2171.04,977.957 2174.87,979.29 2178,982.5C 2183,993.144 2182.34,1003.48 2176,1013.5C 2173.46,1016.77 2170.13,1018.1 2166,1017.5C 2156.65,1016.97 2152.48,1011.97 2153.5,1002.5C 2153.43,996.104 2154.93,990.104 2158,984.5C 2160.32,981.605 2163.16,979.605 2166.5,978.5 Z"/></g>
<g><path style="opacity:1" fill="#00a8e8" d="M 2072.5,990.5 C 2076.52,990.342 2079.52,992.009 2081.5,995.5C 2068.98,1000.57 2065.14,1009.57 2070,1022.5C 2070.91,1029.25 2074.75,1032.58 2081.5,1032.5C 2080.55,1042.6 2075.55,1049.76 2066.5,1054C 2060.53,1055.71 2056.7,1053.54 2055,1047.5C 2054.1,1032.78 2056.1,1018.45 2061,1004.5C 2063.67,998.803 2067.5,994.136 2072.5,990.5 Z"/></g>
<g><path style="opacity:1" fill="#010203" d="M 4444.5,2966.5 C 4444.5,2981.83 4444.5,2997.17 4444.5,3012.5C 4427.4,2976.96 4409.23,2941.96 4390,2907.5C 4382.42,2896.67 4375.09,2885.67 4368,2874.5C 4366.29,2872.09 4365.46,2869.42 4365.5,2866.5C 4369.51,2866.67 4373.51,2866.5 4377.5,2866C 4379.08,2865.29 4380.58,2864.46 4382,2863.5C 4382.67,2862.5 4382.67,2861.5 4382,2860.5C 4368.82,2841.48 4355.16,2822.81 4341,2804.5C 4327.93,2786.41 4316.93,2767.08 4308,2746.5C 4304.89,2738.41 4303.22,2730.07 4303,2721.5C 4306.85,2729.35 4311.51,2736.68 4317,2743.5C 4335.12,2765.95 4354.95,2786.79 4376.5,2806C 4377.6,2806.43 4378.27,2805.93 4378.5,2804.5C 4378.1,2802.8 4377.6,2801.14 4377,2799.5C 4348.82,2747.15 4321.16,2694.48 4294,2641.5C 4270.94,2590.38 4247.61,2539.38 4224,2488.5C 4214.61,2465.32 4206.61,2441.65 4200,2417.5C 4197.43,2407.26 4196.26,2396.93 4196.5,2386.5C 4199.77,2388.27 4202.6,2390.6 4205,2393.5C 4209.5,2399.84 4213.5,2406.5 4217,2413.5C 4225.72,2433.67 4234.06,2454.01 4242,2474.5C 4246.97,2486.44 4252.97,2497.77 4260,2508.5C 4262.68,2511.35 4265.52,2514.02 4268.5,2516.5C 4266.08,2452.07 4256.25,2388.73 4239,2326.5C 4226.12,2279.19 4210.45,2232.86 4192,2187.5C 4161.46,2115.42 4128.46,2044.42 4093,1974.5C 4086.75,1965.58 4079.75,1957.25 4072,1949.5C 4069.57,1946.07 4067.57,1942.4 4066,1938.5C 4064.94,1933.88 4066.78,1931.04 4071.5,1930C 4076.5,1929.33 4081.5,1929.33 4086.5,1930C 4093.8,1930.91 4100.8,1932.58 4107.5,1935C 4092.42,1919.6 4079.26,1902.77 4068,1884.5C 4050.5,1854.17 4032.5,1824.17 4014,1794.5C 4003.83,1778.99 3991.5,1765.32 3977,1753.5C 3975.5,1751.55 3975.34,1749.55 3976.5,1747.5C 3978.83,1746.33 3981.17,1745.17 3983.5,1744C 3984.89,1743.04 3985.56,1741.71 3985.5,1740C 3983.33,1734.49 3980.5,1729.33 3977,1724.5C 3955.92,1696.41 3932.25,1670.41 3906,1646.5C 3898.85,1638.19 3892.68,1629.19 3887.5,1619.5C 3888.17,1619.17 3888.83,1618.83 3889.5,1618.5C 3893.13,1619.43 3896.8,1620.09 3900.5,1620.5C 3900.12,1617.26 3898.95,1614.26 3897,1611.5C 3889.9,1602.4 3882.07,1593.9 3873.5,1586C 3851.46,1566.96 3829.13,1548.29 3806.5,1530C 3792.91,1518.58 3780.91,1505.74 3770.5,1491.5C 3770.83,1491.17 3771.17,1490.83 3771.5,1490.5C 3793.55,1501.07 3814.71,1513.07 3835,1526.5C 3834.2,1522.56 3832.53,1518.89 3830,1515.5C 3825.53,1510.03 3820.7,1504.87 3815.5,1500C 3785.88,1475.84 3753.88,1455.18 3719.5,1438C 3675.78,1417.43 3632.45,1396.1 3589.5,1374C 3570.08,1363.23 3551.74,1350.9 3534.5,1337C 3530.13,1336.42 3527.96,1338.25 3528,1342.5C 3534.33,1348.17 3540.67,1353.83 3547,1359.5C 3547.72,1361.11 3547.55,1362.61 3546.5,1364C 3536.11,1366.7 3526.11,1365.7 3516.5,1361C 3511.14,1356.62 3508.48,1350.95 3508.5,1344C 3509.08,1339.12 3509.91,1334.29 3511,1329.5C 3517.95,1312.27 3525.45,1295.27 3533.5,1278.5C 3557.99,1277.02 3581.65,1280.85 3604.5,1290C 3619.47,1295.93 3634.47,1301.77 3649.5,1307.5C 3647.33,1308.95 3645,1310.11 3642.5,1311C 3634.5,1311.67 3626.5,1311.67 3618.5,1311C 3600.9,1307.34 3583.24,1304.01 3565.5,1301C 3560.14,1300.17 3554.8,1300.34 3549.5,1301.5C 3556.23,1310.72 3564.89,1317.55 3575.5,1322C 3591.94,1328.28 3608.6,1333.94 3625.5,1339C 3634.67,1341.59 3643,1345.75 3650.5,1351.5C 3646.66,1357.5 3641.16,1360.17 3634,1359.5C 3623.3,1357.53 3612.8,1354.7 3602.5,1351C 3599.17,1350.33 3595.83,1350.33 3592.5,1351C 3632.85,1373.84 3673.51,1396.17 3714.5,1418C 3748.21,1436.51 3780.21,1457.51 3810.5,1481C 3821.97,1490.8 3833.13,1500.96 3844,1511.5C 3849.58,1523.56 3855.91,1535.23 3863,1546.5C 3878.71,1565.21 3894.05,1584.21 3909,1603.5C 3914,1611.5 3919,1619.5 3924,1627.5C 3943.49,1653.81 3962.49,1680.48 3981,1707.5C 3986.86,1717.21 3992.19,1727.21 3997,1737.5C 4005.58,1749.42 4014.91,1760.75 4025,1771.5C 4024.95,1775.12 4024.12,1778.62 4022.5,1782C 4023.25,1784.99 4024.41,1787.83 4026,1790.5C 4039.16,1809.49 4051.83,1828.82 4064,1848.5C 4078.4,1866.97 4092.07,1885.97 4105,1905.5C 4113.39,1918.94 4119.56,1933.27 4123.5,1948.5C 4113.05,1946.47 4102.72,1944.3 4092.5,1942C 4117.66,1982.14 4139.82,2023.97 4159,2067.5C 4194.61,2149.05 4228.27,2231.38 4260,2314.5C 4275.06,2356.74 4285.73,2400.07 4292,2444.5C 4293.27,2480.81 4293.94,2517.14 4294,2553.5C 4294.84,2578.36 4300.5,2602.03 4311,2624.5C 4327.07,2656.31 4344.4,2687.31 4363,2717.5C 4380.53,2751.9 4395.87,2787.23 4409,2823.5C 4412.03,2832.97 4413.03,2842.63 4412,2852.5C 4410.94,2855.56 4409.11,2858.06 4406.5,2860C 4414.06,2869.89 4421.22,2880.06 4428,2890.5C 4431.31,2895.46 4433.81,2900.8 4435.5,2906.5C 4435.85,2908.92 4434.85,2910.42 4432.5,2911C 4428.71,2911.16 4425.05,2911.83 4421.5,2913C 4420.4,2915.4 4420.23,2917.9 4421,2920.5C 4428.61,2936.05 4436.44,2951.38 4444.5,2966.5 Z"/></g>
<g><path style="opacity:1" fill="#010406" d="M 1834.5,1745.5 C 1835.71,1757.01 1836.55,1768.68 1837,1780.5C 1832.33,1793.17 1827.67,1805.83 1823,1818.5C 1820.44,1829.52 1817.77,1840.52 1815,1851.5C 1812.52,1853.31 1809.69,1853.98 1806.5,1853.5C 1807.27,1836.91 1809.77,1820.57 1814,1804.5C 1820.28,1784.61 1827.12,1764.94 1834.5,1745.5 Z"/></g>
<g><path style="opacity:1" fill="#010305" d="M 2235.5,1748.5 C 2307.41,1745.3 2360.24,1775.3 2394,1838.5C 2412.99,1877.76 2422.15,1919.26 2421.5,1963C 2421.3,1976.87 2420.47,1990.7 2419,2004.5C 2414.05,2018.23 2406.22,2030.06 2395.5,2040C 2380.76,2053.04 2364.09,2063.04 2345.5,2070C 2286.27,2091.6 2226.6,2092.93 2166.5,2074C 2148.41,2067.21 2132.57,2057.05 2119,2043.5C 2109.49,2032.49 2103.16,2019.82 2100,2005.5C 2093.56,1952.15 2097.23,1899.48 2111,1847.5C 2116.48,1826.37 2127.31,1808.53 2143.5,1794C 2163.48,1775.17 2186.48,1761.17 2212.5,1752C 2220.28,1750.59 2227.95,1749.42 2235.5,1748.5 Z"/></g>
<g><path style="opacity:1" fill="#010305" d="M 1783.5,1828.5 C 1783.37,1822.78 1783.87,1817.11 1785,1811.5C 1788.42,1797.99 1792.42,1784.66 1797,1771.5C 1797.72,1767.85 1798.22,1764.19 1798.5,1760.5C 1799.33,1759.67 1800.16,1760 1801,1761.5C 1803.19,1764.55 1804.86,1767.89 1806,1771.5C 1806.67,1778.5 1806.67,1785.5 1806,1792.5C 1803.14,1805.07 1799.48,1817.4 1795,1829.5C 1793.58,1835.23 1792.25,1840.9 1791,1846.5C 1787.04,1841.12 1784.54,1835.12 1783.5,1828.5 Z"/></g>
<g><path style="opacity:1" fill="#00acee" d="M 2243.5,1763.5 C 2323.82,1759.01 2373.65,1795.68 2393,1873.5C 2400.16,1907.13 2402.49,1941.13 2400,1975.5C 2399.18,1987.51 2398.18,1999.51 2397,2011.5C 2396.53,2013.25 2395.86,2014.91 2395,2016.5C 2379.82,2032.51 2361.99,2044.68 2341.5,2053C 2296.87,2070.3 2250.87,2075.3 2203.5,2068C 2147.09,2057.93 2115.93,2024.43 2110,1967.5C 2105.33,1900.74 2126.49,1843.91 2173.5,1797C 2193.66,1779.09 2216.99,1767.92 2243.5,1763.5 Z"/></g>
<g><path style="opacity:1" fill="#009eda" d="M 1797.5,1758.5 C 1797.33,1759.49 1797.66,1760.16 1798.5,1760.5C 1798.22,1764.19 1797.72,1767.85 1797,1771.5C 1792.42,1784.66 1788.42,1797.99 1785,1811.5C 1783.87,1817.11 1783.37,1822.78 1783.5,1828.5C 1782.88,1828.39 1782.38,1828.06 1782,1827.5C 1781.8,1832.18 1780.8,1832.51 1779,1828.5C 1778.77,1829.74 1778.27,1830.74 1777.5,1831.5C 1781.85,1806.42 1788.52,1782.09 1797.5,1758.5 Z"/></g>
<g><path style="opacity:1" fill="#03070b" d="M 1842.5,1781.5 C 1843.75,1781.58 1844.58,1782.24 1845,1783.5C 1848.53,1803.41 1845.86,1822.41 1837,1840.5C 1833.97,1846.36 1829.47,1850.69 1823.5,1853.5C 1822.36,1851.58 1822.19,1849.58 1823,1847.5C 1832.08,1826.26 1838.58,1804.26 1842.5,1781.5 Z"/></g>
<g><path style="opacity:1" fill="#010305" d="M 1863.5,1817.5 C 1866.53,1819.19 1868.36,1821.86 1869,1825.5C 1868.64,1836.15 1868.64,1846.82 1869,1857.5C 1869.73,1861.58 1870.4,1865.58 1871,1869.5C 1859.96,1875.54 1848.12,1877.87 1835.5,1876.5C 1836.17,1869.98 1837.67,1863.65 1840,1857.5C 1847.29,1843.74 1855.12,1830.41 1863.5,1817.5 Z"/></g>
<g><path style="opacity:1" fill="#000102" d="M 2182.5,1861.5 C 2190.51,1861.33 2198.51,1861.5 2206.5,1862C 2216.24,1865.41 2223.08,1871.91 2227,1881.5C 2234.42,1899.79 2235.42,1918.45 2230,1937.5C 2228.04,1944.61 2223.54,1949.11 2216.5,1951C 2210.83,1951.33 2205.17,1951.67 2199.5,1952C 2194.13,1953.58 2191.96,1957.08 2193,1962.5C 2193.9,1963.7 2195.07,1964.53 2196.5,1965C 2204.27,1966.15 2211.77,1965.32 2219,1962.5C 2218.9,1969.84 2215.4,1975.01 2208.5,1978C 2182.51,1987.79 2163.01,1980.62 2150,1956.5C 2142.5,1938.8 2140.5,1920.47 2144,1901.5C 2149.3,1880.7 2162.14,1867.37 2182.5,1861.5 Z"/></g>
<g><path style="opacity:1" fill="#010406" d="M 1890.5,1867.5 C 1893.19,1867.34 1895.85,1867.5 1898.5,1868C 1899.43,1868.39 1900.09,1869.05 1900.5,1870C 1895.92,1879.67 1890.75,1888.84 1885,1897.5C 1882.35,1896.18 1880.35,1894.18 1879,1891.5C 1877.22,1880.72 1881.06,1872.72 1890.5,1867.5 Z"/></g>
<g><path style="opacity:1" fill="#030609" d="M 1904.5,1884.5 C 1908.6,1883.77 1912.1,1884.77 1915,1887.5C 1914.78,1891.41 1912.61,1893.91 1908.5,1895C 1902.32,1896.19 1900.16,1893.69 1902,1887.5C 1903.04,1886.63 1903.88,1885.63 1904.5,1884.5 Z"/></g>
<g><path style="opacity:1" fill="#00a4e2" d="M 1717.5,1909.5 C 1722.21,1909.17 1726.88,1909.51 1731.5,1910.5C 1728.34,1914.91 1724,1916.58 1718.5,1915.5C 1708.48,1915.5 1708.15,1913.5 1717.5,1909.5 Z"/></g>
<g><path style="opacity:1" fill="#00a8e8" d="M 2208.5,1905.5 C 2210.39,1905.3 2211.89,1905.96 2213,1907.5C 2216.41,1914.77 2217.41,1922.44 2216,1930.5C 2211.98,1933.44 2208.32,1933.11 2205,1929.5C 2203.59,1921 2204.76,1913 2208.5,1905.5 Z"/></g>
<g><path style="opacity:1" fill="#010305" d="M 1756.5,1949.5 C 1760.18,1949.33 1763.85,1949.5 1767.5,1950C 1775.45,1952.15 1783.45,1953.98 1791.5,1955.5C 1791.89,1960.56 1789.55,1963.39 1784.5,1964C 1772.49,1963.93 1760.49,1963.43 1748.5,1962.5C 1748.89,1956.71 1751.56,1952.38 1756.5,1949.5 Z"/></g>
<g><path style="opacity:1" fill="#020406" d="M 1798.5,1978.5 C 1798.5,1980.5 1798.5,1982.5 1798.5,1984.5C 1791.5,1984.5 1784.5,1984.5 1777.5,1984.5C 1777.5,1979.83 1777.5,1975.17 1777.5,1970.5C 1784.69,1968.4 1791.19,1969.74 1797,1974.5C 1797.79,1975.74 1798.29,1977.08 1798.5,1978.5 Z"/></g>
<g><path style="opacity:1" fill="#003c52" d="M 1777.5,1970.5 C 1777.5,1975.17 1777.5,1979.83 1777.5,1984.5C 1784.5,1984.5 1791.5,1984.5 1798.5,1984.5C 1798.5,1982.5 1798.5,1980.5 1798.5,1978.5C 1799.47,1980.61 1799.8,1982.94 1799.5,1985.5C 1791.83,1985.5 1784.17,1985.5 1776.5,1985.5C 1776.18,1980.31 1776.51,1975.31 1777.5,1970.5 Z"/></g>
<g><path style="opacity:1" fill="#010305" d="M 2211.5,2254.5 C 2248.82,2258.5 2286.15,2262.33 2323.5,2266C 2421.71,2273.17 2519.71,2282.5 2617.5,2294C 2690.57,2303.08 2762.57,2317.41 2833.5,2337C 2848.09,2338.82 2862.42,2341.82 2876.5,2346C 2889.27,2349.93 2896.94,2358.43 2899.5,2371.5C 2857.05,2374.85 2814.72,2373.69 2772.5,2368C 2750.49,2364.33 2728.49,2360.66 2706.5,2357C 2652.7,2345.11 2598.7,2334.11 2544.5,2324C 2510.4,2318.02 2476.07,2314.02 2441.5,2312C 2396.83,2311.67 2352.17,2311.33 2307.5,2311C 2273.44,2310.05 2240.44,2303.72 2208.5,2292C 2203.47,2289.48 2198.47,2286.98 2193.5,2284.5C 2191.3,2278.12 2192.8,2272.79 2198,2268.5C 2198.67,2266.5 2199.33,2264.5 2200,2262.5C 2204.01,2259.97 2207.85,2257.3 2211.5,2254.5 Z"/></g>
<g><path style="opacity:1" fill="#00a4e2" d="M 1452.5,2234.5 C 1454.2,2234.34 1455.87,2234.51 1457.5,2235C 1449.6,2239.3 1441.27,2242.64 1432.5,2245C 1413.12,2251.43 1393.45,2256.43 1373.5,2260C 1380.14,2256.23 1387.14,2253.23 1394.5,2251C 1413.87,2245.16 1433.2,2239.66 1452.5,2234.5 Z"/></g>
<g><path style="opacity:1" fill="#010305" d="M 2017.5,2293.5 C 2021.51,2293.5 2025.18,2294.67 2028.5,2297C 2035.95,2304.44 2042.62,2312.44 2048.5,2321C 2135.32,2334.47 2221.32,2351.8 2306.5,2373C 2445.02,2409.28 2582.69,2448.62 2719.5,2491C 2742.82,2496.33 2766.15,2501.66 2789.5,2507C 2815.5,2515.33 2840.83,2525.33 2865.5,2537C 2880.62,2545.61 2889.62,2558.44 2892.5,2575.5C 2855.34,2566.59 2818.34,2557.09 2781.5,2547C 2664.78,2514.2 2548.11,2481.2 2431.5,2448C 2329.41,2419.97 2226.41,2395.64 2122.5,2375C 2091.32,2369.66 2060.16,2364.16 2029,2358.5C 2026.34,2362.47 2023.68,2366.47 2021,2370.5C 2018.38,2373.72 2015.22,2375.06 2011.5,2374.5C 2014.58,2369.43 2016.58,2363.93 2017.5,2358C 2013.93,2355.1 2011.1,2351.6 2009,2347.5C 2008.38,2342.78 2008.71,2338.11 2010,2333.5C 2013.08,2327.01 2016.41,2320.68 2020,2314.5C 2020.77,2311.9 2020.6,2309.4 2019.5,2307C 2016.56,2306.03 2013.56,2305.2 2010.5,2304.5C 2011.68,2300.01 2014.01,2296.34 2017.5,2293.5 Z"/></g>
<g><path style="opacity:1" fill="#00a9e9" d="M 2213.5,2272.5 C 2251.23,2272.34 2288.9,2273.84 2326.5,2277C 2474.17,2288.89 2620.83,2308.22 2766.5,2335C 2795.47,2340.99 2824.13,2348.16 2852.5,2356.5C 2852.29,2357.09 2851.96,2357.59 2851.5,2358C 2839.81,2358.65 2828.14,2358.32 2816.5,2357C 2740.44,2344.43 2664.44,2331.43 2588.5,2318C 2521.54,2306.88 2454.21,2298.88 2386.5,2294C 2335.44,2291.97 2284.44,2288.97 2233.5,2285C 2225.46,2284.37 2217.8,2282.37 2210.5,2279C 2209.64,2278.31 2208.98,2277.48 2208.5,2276.5C 2209.71,2274.46 2211.37,2273.13 2213.5,2272.5 Z"/></g>
<g><path style="opacity:1" fill="#00a9e8" d="M 2851.5,2542.5 C 2848.04,2543.48 2844.37,2543.81 2840.5,2543.5C 2812.69,2540.97 2785.35,2535.8 2758.5,2528C 2522.48,2451.73 2282.81,2389.39 2039.5,2341C 2033.8,2340.08 2028.46,2338.25 2023.5,2335.5C 2023.71,2334.91 2024.04,2334.41 2024.5,2334C 2059.97,2332.38 2094.97,2335.71 2129.5,2344C 2164.93,2353.02 2200.26,2362.36 2235.5,2372C 2357.44,2400.4 2478.44,2432.07 2598.5,2467C 2682.96,2491.88 2767.29,2517.04 2851.5,2542.5 Z"/></g>
<g><path style="opacity:1" fill="#020608" d="M 1536.5,2408.5 C 1546.36,2411.86 1553.52,2418.19 1558,2427.5C 1558.67,2430.83 1558.67,2434.17 1558,2437.5C 1551.98,2433.99 1546.32,2429.99 1541,2425.5C 1537.56,2420.34 1536.06,2414.67 1536.5,2408.5 Z"/></g>
<g><path style="opacity:1" fill="#010304" d="M 2158.5,2510.5 C 2196.38,2517.18 2233.05,2528.01 2268.5,2543C 2323.22,2567.2 2377.56,2592.2 2431.5,2618C 2462.66,2630.61 2493.66,2643.61 2524.5,2657C 2557.5,2671.36 2586.67,2691.19 2612,2716.5C 2618.95,2724.78 2625.11,2733.61 2630.5,2743C 2604.92,2738.69 2579.92,2732.02 2555.5,2723C 2540.42,2717.2 2525.42,2711.2 2510.5,2705C 2415.2,2661.69 2320.53,2616.69 2226.5,2570C 2203.26,2559.54 2179.92,2549.38 2156.5,2539.5C 2155.86,2529.44 2156.53,2519.78 2158.5,2510.5 Z"/></g>
<g><path style="opacity:1" fill="#005978" d="M 2158.5,2510.5 C 2156.53,2519.78 2155.86,2529.44 2156.5,2539.5C 2155.51,2529.68 2155.17,2519.68 2155.5,2509.5C 2156.79,2509.26 2157.79,2509.6 2158.5,2510.5 Z"/></g>
<g><path style="opacity:1" fill="#014d6a" d="M 2851.5,2542.5 C 2852.92,2542.71 2854.26,2543.21 2855.5,2544C 2850.32,2544.82 2845.32,2544.65 2840.5,2543.5C 2844.37,2543.81 2848.04,2543.48 2851.5,2542.5 Z"/></g>
<g><path style="opacity:1" fill="#00aaea" d="M 2164.5,2523.5 C 2168.55,2524.01 2172.55,2524.85 2176.5,2526C 2191.32,2530.94 2205.99,2536.27 2220.5,2542C 2307.26,2578.05 2393.26,2615.72 2478.5,2655C 2506.5,2669 2534.5,2683 2562.5,2697C 2572.5,2702.33 2582.17,2708.16 2591.5,2714.5C 2589.23,2715.21 2586.9,2715.04 2584.5,2714C 2554.18,2702.78 2524.18,2690.78 2494.5,2678C 2393.5,2634.11 2292.83,2589.44 2192.5,2544C 2182.25,2539.3 2172.75,2533.46 2164,2526.5C 2163.53,2525.42 2163.7,2524.42 2164.5,2523.5 Z"/></g>
<g><path style="opacity:1" fill="#010304" d="M 1499.5,2602.5 C 1529.26,2601.55 1558.59,2604.55 1587.5,2611.5C 1587.7,2613.39 1587.04,2614.89 1585.5,2616C 1581.42,2617.79 1577.59,2619.95 1574,2622.5C 1573.51,2623.79 1573.34,2625.13 1573.5,2626.5C 1591.58,2626.68 1609.25,2629.52 1626.5,2635C 1641.69,2640.73 1657.03,2646.06 1672.5,2651C 1680.68,2653.41 1689.02,2655.07 1697.5,2656C 1706.37,2660.94 1715.37,2665.6 1724.5,2670C 1756.5,2683.67 1788.5,2697.33 1820.5,2711C 1846.77,2722.8 1871.44,2737.13 1894.5,2754C 1919.19,2773.68 1937.35,2798.18 1949,2827.5C 1950.35,2830.72 1951.19,2834.05 1951.5,2837.5C 1965.45,2836.23 1976.95,2840.89 1986,2851.5C 1996.34,2865.32 2007.5,2878.48 2019.5,2891C 2029.72,2899.13 2041.38,2903.63 2054.5,2904.5C 2064.22,2924.03 2075.72,2942.36 2089,2959.5C 2112.25,2988.75 2136.25,3017.42 2161,3045.5C 2186.65,3076.1 2208.32,3109.44 2226,3145.5C 2229.33,3154.17 2232.67,3162.83 2236,3171.5C 2246.59,3207.52 2258.25,3243.19 2271,3278.5C 2285.33,3308.81 2301.33,3338.14 2319,3366.5C 2335.34,3393.69 2343.17,3423.19 2342.5,3455C 2341.92,3468.18 2341.09,3481.35 2340,3494.5C 2336.51,3520.45 2333.51,3546.45 2331,3572.5C 2328.89,3595.88 2330.89,3618.88 2337,3641.5C 2342.74,3658.72 2348.07,3676.05 2353,3693.5C 2354.93,3704.83 2354.93,3716.16 2353,3727.5C 2337.49,3711.82 2327.16,3693.15 2322,3671.5C 2315.87,3645.89 2313.03,3619.89 2313.5,3593.5C 2315.34,3551.82 2317.34,3510.16 2319.5,3468.5C 2320.28,3428.97 2313.12,3390.97 2298,3354.5C 2279.15,3313.13 2259.48,3272.13 2239,3231.5C 2229.77,3209.71 2221.11,3187.71 2213,3165.5C 2203.52,3145.19 2192.52,3125.86 2180,3107.5C 2158.38,3078.22 2136.38,3049.22 2114,3020.5C 2095.51,2991.01 2075.84,2962.34 2055,2934.5C 2049.8,2929.63 2044.97,2924.47 2040.5,2919C 2024.82,2913 2009.82,2905.66 1995.5,2897C 1986.92,2890.67 1983.08,2882.17 1984,2871.5C 1982.88,2869.38 1981.38,2867.54 1979.5,2866C 1963.67,2858.4 1947,2853.9 1929.5,2852.5C 1929.38,2846.31 1927.55,2840.64 1924,2835.5C 1919.68,2830.86 1915.85,2825.86 1912.5,2820.5C 1914.04,2818.55 1916.04,2818.05 1918.5,2819C 1924.64,2820.65 1930.14,2823.49 1935,2827.5C 1929.97,2813.61 1922.47,2801.11 1912.5,2790C 1890.94,2772.44 1868.28,2756.44 1844.5,2742C 1796.45,2714.98 1746.45,2692.31 1694.5,2674C 1649.8,2660.33 1604.13,2651.66 1557.5,2648C 1548.3,2643.76 1544.8,2636.6 1547,2626.5C 1544.05,2622.36 1540.05,2620.03 1535,2619.5C 1442.93,2627.74 1357.1,2655.24 1277.5,2702C 1216.7,2739.45 1159.87,2782.29 1107,2830.5C 1104.63,2826.14 1103.96,2821.48 1105,2816.5C 1109.15,2808.16 1115.32,2801.66 1123.5,2797C 1131.33,2792.58 1139,2787.92 1146.5,2783C 1175.14,2752.7 1204.14,2722.7 1233.5,2693C 1255.76,2672.09 1280.76,2655.09 1308.5,2642C 1314.72,2639.39 1321.06,2637.06 1327.5,2635C 1329.26,2634.2 1330.93,2634.37 1332.5,2635.5C 1331.7,2641.94 1328.7,2647.1 1323.5,2651C 1313.66,2655.39 1303.66,2659.39 1293.5,2663C 1287.57,2665.76 1283.57,2670.26 1281.5,2676.5C 1281.83,2676.83 1282.17,2677.17 1282.5,2677.5C 1317.87,2663.21 1352.87,2648.04 1387.5,2632C 1423.39,2616.2 1460.72,2606.36 1499.5,2602.5 Z"/></g>
<g><path style="opacity:1" fill="#010305" d="M 980.5,3008.5 C 980.187,3011.25 980.52,3013.91 981.5,3016.5C 982.107,3016.38 982.44,3016.04 982.5,3015.5C 1001.91,3005.25 1022.57,2999.25 1044.5,2997.5C 1053.45,2996.95 1059.28,3000.95 1062,3009.5C 1068.87,3026.96 1073.87,3044.96 1077,3063.5C 1086.57,3122.47 1092.24,3181.81 1094,3241.5C 1093.92,3247.44 1091.42,3251.94 1086.5,3255C 1084.5,3255.67 1082.5,3255.67 1080.5,3255C 1065.29,3247.63 1052.13,3237.46 1041,3224.5C 1028.61,3208.44 1015.11,3193.27 1000.5,3179C 987.393,3168.19 972.727,3165.52 956.5,3171C 949.554,3173.81 942.888,3177.14 936.5,3181C 919.434,3192.39 902.101,3203.39 884.5,3214C 875.176,3218.83 865.51,3222.83 855.5,3226C 843.771,3236.72 833.937,3248.89 826,3262.5C 820.063,3273.37 814.396,3284.37 809,3295.5C 795.105,3326.94 782.105,3358.6 770,3390.5C 774.411,3385.23 779.911,3381.9 786.5,3380.5C 786.201,3384.11 785.035,3387.44 783,3390.5C 774.333,3402.5 765.667,3414.5 757,3426.5C 752.6,3433.24 748.6,3440.24 745,3447.5C 744.649,3456.04 743.316,3464.37 741,3472.5C 719.454,3511.43 701.288,3551.93 686.5,3594C 687.493,3595.97 689.16,3597.13 691.5,3597.5C 692.583,3598.36 692.749,3599.36 692,3600.5C 679.122,3625.59 666.789,3650.92 655,3676.5C 642.592,3712.39 627.092,3746.89 608.5,3780C 615.45,3775.75 621.95,3770.59 628,3764.5C 636.715,3754.12 645.048,3743.45 653,3732.5C 659.78,3724.71 667.447,3718.05 676,3712.5C 635.837,3776.86 607.17,3846.19 590,3920.5C 592.071,3921.52 594.238,3922.36 596.5,3923C 597.022,3923.56 597.355,3924.23 597.5,3925C 589.934,3943.36 583.767,3962.2 579,3981.5C 571.215,4014.42 564.715,4047.59 559.5,4081C 559.305,4083.35 559.972,4085.35 561.5,4087C 567.147,4086.7 572.814,4086.7 578.5,4087C 580.124,4088.12 581.124,4089.62 581.5,4091.5C 562.02,4135.42 552.02,4181.42 551.5,4229.5C 556.327,4229.16 560.161,4230.82 563,4234.5C 563.831,4248.57 563.164,4262.57 561,4276.5C 560.333,4307.5 560.333,4338.5 561,4369.5C 564.031,4379.79 565.864,4390.29 566.5,4401C 566.437,4415.55 559.104,4421.72 544.5,4419.5C 539.554,4358.08 535.887,4296.58 533.5,4235C 534.374,4199.72 536.874,4164.56 541,4129.5C 540.808,4098.62 543.141,4067.96 548,4037.5C 555.68,3997.75 563.68,3958.09 572,3918.5C 581.229,3877.48 594.062,3837.65 610.5,3799C 606.858,3800.31 603.191,3801.98 599.5,3804C 593.586,3806.31 587.586,3807.98 581.5,3809C 587.402,3797.36 592.902,3785.53 598,3773.5C 627.654,3693.87 659.654,3615.2 694,3537.5C 698.335,3527.32 702.169,3516.99 705.5,3506.5C 701.332,3507.72 697.165,3509.06 693,3510.5C 692.5,3510.17 692,3509.83 691.5,3509.5C 706,3489.17 720.5,3468.83 735,3448.5C 746.469,3427.76 755.803,3406.09 763,3383.5C 771.275,3355.01 780.941,3327.01 792,3299.5C 819.262,3244.97 848.929,3191.97 881,3140.5C 881.684,3139.22 881.517,3138.05 880.5,3137C 875.37,3136.48 871.203,3138.31 868,3142.5C 865.938,3144.9 864.271,3147.57 863,3150.5C 865.966,3127.23 874.966,3106.56 890,3088.5C 904.304,3073.2 918.971,3058.2 934,3043.5C 938,3038.17 942,3032.83 946,3027.5C 947.362,3022.86 945.696,3020.53 941,3020.5C 934.869,3021.1 929.535,3023.43 925,3027.5C 924.833,3027 924.667,3026.5 924.5,3026C 933.716,3001.39 946.883,2979.22 964,2959.5C 977.304,2945.2 990.971,2931.2 1005,2917.5C 1017.72,2901.11 1031.55,2885.61 1046.5,2871C 1061.47,2858.18 1078.81,2852.18 1098.5,2853C 1093.06,2854.89 1088.06,2857.55 1083.5,2861C 1069.37,2872.12 1055.54,2883.62 1042,2895.5C 1038.85,2902.62 1035.52,2909.62 1032,2916.5C 1023.12,2924.38 1013.96,2931.88 1004.5,2939C 997.814,2946.21 991.981,2954.04 987,2962.5C 975.034,2972.8 963.367,2983.46 952,2994.5C 951.028,2996.3 949.861,2997.97 948.5,2999.5C 948.833,2999.83 949.167,3000.17 949.5,3000.5C 956.624,2997.91 963.957,2997.07 971.5,2998C 976.718,2999.61 979.718,3003.11 980.5,3008.5 Z"/></g>
<g><path style="opacity:1" fill="#fdfefe" d="M 5328.5,2917.5 C 5330.39,2917.3 5331.89,2917.96 5333,2919.5C 5346.38,2940.91 5358.21,2963.25 5368.5,2986.5C 5367.22,2988.15 5365.55,2989.31 5363.5,2990C 5352.72,2994.22 5342.05,2998.72 5331.5,3003.5C 5321.72,2979.1 5309.72,2955.93 5295.5,2934C 5306.56,2928.47 5317.56,2922.97 5328.5,2917.5 Z"/></g>
<g><path style="opacity:1" fill="#fefefe" d="M 5274.5,2921.5 C 5289.22,2943.59 5301.88,2966.92 5312.5,2991.5C 5310.33,2993.09 5308,2994.42 5305.5,2995.5C 5303.04,3027.77 5298.54,3059.77 5292,3091.5C 5284.08,3126.98 5270.42,3159.98 5251,3190.5C 5218,3234.15 5175.83,3265.65 5124.5,3285C 5084.44,3300.02 5043.11,3309.02 5000.5,3312C 4996.11,3296.95 4992.11,3281.78 4988.5,3266.5C 5059.74,3261.48 5123.74,3237.65 5180.5,3195C 5213.96,3164.26 5235.13,3126.43 5244,3081.5C 5247.89,3063.35 5250.39,3045.02 5251.5,3026.5C 5162.83,3026.5 5074.17,3026.5 4985.5,3026.5C 4985.5,3011.17 4985.5,2995.83 4985.5,2980.5C 5077.5,2980.83 5169.5,2980.5 5261.5,2979.5C 5255.06,2965.44 5247.72,2951.94 5239.5,2939C 5251.23,2933.14 5262.89,2927.3 5274.5,2921.5 Z"/></g>
<g><path style="opacity:1" fill="#fefefe" d="M 3608.5,2991.5 C 3607.96,2991.56 3607.62,2991.89 3607.5,2992.5C 3669.83,2993.5 3732.16,2993.83 3794.5,2993.5C 3786.13,3160.11 3701.47,3264.95 3540.5,3308C 3530.65,3310.09 3520.82,3312.25 3511,3314.5C 3510.17,3314.17 3509.33,3313.83 3508.5,3313.5C 3503.23,3299.69 3498.56,3285.69 3494.5,3271.5C 3555.79,3262.26 3610.13,3238.1 3657.5,3199C 3661.83,3194.67 3666.17,3190.33 3670.5,3186C 3626.17,3162.39 3580.17,3142.55 3532.5,3126.5C 3531.48,3126 3531.31,3125.33 3532,3124.5C 3539.7,3112.97 3547.2,3101.3 3554.5,3089.5C 3555.72,3088.39 3557.06,3088.22 3558.5,3089C 3607.44,3105.05 3654.94,3124.55 3701,3147.5C 3722.18,3113.48 3735.34,3076.48 3740.5,3036.5C 3688.83,3036.17 3637.16,3036.5 3585.5,3037.5C 3552.83,3092.34 3509.5,3136.84 3455.5,3171C 3453.35,3172.59 3451.02,3173.26 3448.5,3173C 3439.83,3162 3431.17,3151 3422.5,3140C 3485.21,3098.96 3531.71,3044.12 3562,2975.5C 3565.71,2967.09 3568.54,2958.42 3570.5,2949.5C 3587.19,2951.43 3603.85,2953.6 3620.5,2956C 3616.6,2967.87 3612.6,2979.7 3608.5,2991.5 Z"/></g>
<g><path style="opacity:1" fill="#fefefe" d="M 4445.5,3312.5 C 4445.83,3247.16 4445.5,3181.83 4444.5,3116.5C 4443.89,3116.62 4443.56,3116.96 4443.5,3117.5C 4385.42,3196.91 4311.08,3255.91 4220.5,3294.5C 4212.39,3281.79 4204.39,3268.95 4196.5,3256C 4277,3218.82 4344.5,3165.32 4399,3095.5C 4404.36,3088.11 4409.19,3080.45 4413.5,3072.5C 4350.67,3071.5 4287.67,3071.17 4224.5,3071.5C 4224.5,3056.5 4224.5,3041.5 4224.5,3026.5C 4297.83,3026.5 4371.17,3026.5 4444.5,3026.5C 4444.5,3021.83 4444.5,3017.17 4444.5,3012.5C 4444.5,2997.17 4444.5,2981.83 4444.5,2966.5C 4444.5,2961.83 4444.5,2957.17 4444.5,2952.5C 4461.5,2952.5 4478.5,2952.5 4495.5,2952.5C 4495.5,2977.17 4495.5,3001.83 4495.5,3026.5C 4524.5,3026.5 4553.5,3026.5 4582.5,3026.5C 4582.5,3041.83 4582.5,3057.17 4582.5,3072.5C 4553.5,3072.5 4524.5,3072.5 4495.5,3072.5C 4495.5,3152.5 4495.5,3232.5 4495.5,3312.5C 4478.83,3312.5 4462.17,3312.5 4445.5,3312.5 Z"/></g>
<g><path style="opacity:1" fill="#fefefe" d="M 5640.5,2957.5 C 5657.17,2957.5 5673.83,2957.5 5690.5,2957.5C 5690.96,3022.52 5690.46,3087.52 5689,3152.5C 5681.69,3206.03 5654.85,3246.19 5608.5,3273C 5579.67,3288.83 5549,3299.5 5516.5,3305C 5495.31,3308.72 5473.97,3310.89 5452.5,3311.5C 5449,3296.48 5445.33,3281.48 5441.5,3266.5C 5478.5,3265.28 5514.5,3258.78 5549.5,3247C 5605.16,3228.01 5635.32,3189.17 5640,3130.5C 5640.5,3072.83 5640.67,3015.17 5640.5,2957.5 Z"/></g>
<g><path style="opacity:1" fill="#fdfefe" d="M 4149.5,2959.5 C 4150.38,2959.37 4151.04,2959.7 4151.5,2960.5C 4165.64,2982.45 4177.98,3005.45 4188.5,3029.5C 4176.37,3035.21 4164.03,3040.55 4151.5,3045.5C 4141.25,3021.59 4129.25,2998.59 4115.5,2976.5C 4126.89,2970.8 4138.23,2965.14 4149.5,2959.5 Z"/></g>
<g><path style="opacity:1" fill="#fdfefe" d="M 4921.5,2959.5 C 4922.5,2959.41 4923.33,2959.75 4924,2960.5C 4938.1,2982.19 4950.26,3005.02 4960.5,3029C 4948.84,3035.41 4936.67,3040.91 4924,3045.5C 4913.89,3021.78 4902.06,2998.95 4888.5,2977C 4899.28,2970.69 4910.28,2964.86 4921.5,2959.5 Z"/></g>
<g><path style="opacity:1" fill="#fefefe" d="M 3881.5,2964.5 C 3922.64,2973.04 3962.97,2984.54 4002.5,2999C 4019.24,3005.41 4035.91,3011.91 4052.5,3018.5C 4045.07,3033.62 4036.73,3048.29 4027.5,3062.5C 4008.45,3052.54 3988.78,3044.04 3968.5,3037C 3933.02,3024.78 3897.35,3013.28 3861.5,3002.5C 3868.63,2990.05 3875.29,2977.38 3881.5,2964.5 Z"/></g>
<g><path style="opacity:1" fill="#fefefe" d="M 4654.5,2964.5 C 4712.77,2976.98 4769.27,2994.98 4824,3018.5C 4825.26,3018.85 4825.59,3019.52 4825,3020.5C 4817.03,3034.63 4808.87,3048.63 4800.5,3062.5C 4780.41,3052.29 4759.75,3043.46 4738.5,3036C 4704.05,3024.23 4669.39,3013.39 4634.5,3003.5C 4640.88,2990.41 4647.54,2977.41 4654.5,2964.5 Z"/></g>
<g><path style="opacity:1" fill="#fefefe" d="M 5463.5,2964.5 C 5463.5,3037.17 5463.5,3109.83 5463.5,3182.5C 5446.83,3182.5 5430.17,3182.5 5413.5,3182.5C 5413.5,3109.83 5413.5,3037.17 5413.5,2964.5C 5430.17,2964.5 5446.83,2964.5 5463.5,2964.5 Z"/></g>
<g><path style="opacity:1" fill="#bee9fa" d="M 5463.5,2964.5 C 5464.5,3037.33 5464.83,3110.33 5464.5,3183.5C 5447.33,3183.83 5430.33,3183.5 5413.5,3182.5C 5430.17,3182.5 5446.83,3182.5 5463.5,3182.5C 5463.5,3109.83 5463.5,3037.17 5463.5,2964.5 Z"/></g>
<g><path style="opacity:1" fill="#fdfefe" d="M 4091.5,2972.5 C 4092.98,2972.24 4094.31,2972.57 4095.5,2973.5C 4109.57,2994.96 4121.57,3017.63 4131.5,3041.5C 4119.66,3047.83 4107.5,3053.5 4095,3058.5C 4084.29,3034.59 4072.13,3011.42 4058.5,2989C 4069.56,2983.47 4080.56,2977.97 4091.5,2972.5 Z"/></g>
<g><path style="opacity:1" fill="#fdfefe" d="M 4864.5,2972.5 C 4866.39,2972.3 4867.89,2972.96 4869,2974.5C 4883.03,2995.89 4894.36,3018.55 4903,3042.5C 4891.79,3047.52 4880.62,3052.69 4869.5,3058C 4868.5,3058.67 4867.5,3058.67 4866.5,3058C 4855.98,3033.8 4844.32,3010.3 4831.5,2987.5C 4842.91,2983.29 4853.91,2978.29 4864.5,2972.5 Z"/></g>
<g><path style="opacity:1" fill="#fefefe" d="M 3079.5,2976.5 C 3169.5,2976.33 3259.5,2976.5 3349.5,2977C 3354.26,2980.71 3358.59,2984.88 3362.5,2989.5C 3344.49,3047.04 3316.49,3098.87 3278.5,3145C 3279.1,3146.61 3280.1,3147.94 3281.5,3149C 3333.24,3191.73 3383.24,3236.57 3431.5,3283.5C 3418.91,3294.47 3405.91,3304.97 3392.5,3315C 3391.5,3315.67 3390.5,3315.67 3389.5,3315C 3344.21,3267.41 3296.54,3222.57 3246.5,3180.5C 3203.5,3222.98 3155.83,3259.15 3103.5,3289C 3086.86,3297.82 3069.86,3305.82 3052.5,3313C 3051.36,3313.75 3050.36,3313.58 3049.5,3312.5C 3041.77,3300.09 3034.43,3287.43 3027.5,3274.5C 3117.72,3234.78 3193.22,3176.12 3254,3098.5C 3271.57,3074.72 3286.07,3049.05 3297.5,3021.5C 3224.84,3020.5 3152.17,3020.17 3079.5,3020.5C 3079.5,3005.83 3079.5,2991.17 3079.5,2976.5 Z"/></g>
<g><path style="opacity:1" fill="#3fc3f3" d="M 3608.5,2991.5 C 3670.5,2992.17 3732.5,2992.83 3794.5,2993.5C 3732.16,2993.83 3669.83,2993.5 3607.5,2992.5C 3607.62,2991.89 3607.96,2991.56 3608.5,2991.5 Z"/></g>
<g><path style="opacity:1" fill="#005473" d="M 980.5,3008.5 C 981.167,3010.83 981.833,3013.17 982.5,3015.5C 982.44,3016.04 982.107,3016.38 981.5,3016.5C 980.52,3013.91 980.187,3011.25 980.5,3008.5 Z"/></g>
<g><path style="opacity:1" fill="#00aced" d="M 1027.5,3012.5 C 1037.24,3010.69 1045.08,3013.69 1051,3021.5C 1059.11,3032.49 1064.11,3044.83 1066,3058.5C 1070.25,3080.66 1073.25,3102.99 1075,3125.5C 1075.46,3142.53 1076.46,3159.53 1078,3176.5C 1082.13,3197.99 1084.13,3219.65 1084,3241.5C 1081.5,3242.6 1079,3242.43 1076.5,3241C 1068.07,3234.57 1060.23,3227.4 1053,3219.5C 1039.24,3202.98 1025.24,3186.65 1011,3170.5C 1004.47,3163.63 997.636,3157.13 990.5,3151C 983.158,3144.56 974.825,3142.9 965.5,3146C 961.047,3147.73 956.714,3149.73 952.5,3152C 930.5,3167.33 908.5,3182.67 886.5,3198C 879.715,3202.06 872.715,3205.56 865.5,3208.5C 865.334,3204.15 865.501,3199.82 866,3195.5C 878.776,3162.6 897.109,3133.26 921,3107.5C 921.49,3106.21 921.657,3104.87 921.5,3103.5C 918.729,3103.42 916.063,3103.92 913.5,3105C 902.208,3110.39 891.541,3116.39 881.5,3123C 916.075,3067.55 964.742,3030.71 1027.5,3012.5 Z"/></g>
<g><path style="opacity:1" fill="#fefefe" d="M 3839.5,3065.5 C 3898.9,3077.03 3956.24,3094.86 4011.5,3119C 4004.55,3131.74 3997.71,3144.57 3991,3157.5C 3990.1,3159.33 3988.77,3160.66 3987,3161.5C 3933.6,3138.87 3878.76,3120.53 3822.5,3106.5C 3822.17,3106.17 3821.83,3105.83 3821.5,3105.5C 3827.51,3092.15 3833.51,3078.81 3839.5,3065.5 Z"/></g>
<g><path style="opacity:1" fill="#fefefe" d="M 4612.5,3065.5 C 4671.71,3077.13 4729.04,3094.79 4784.5,3118.5C 4777.53,3131.96 4770.37,3145.29 4763,3158.5C 4762.25,3159.99 4761.09,3160.99 4759.5,3161.5C 4706.1,3138.4 4651.1,3120.07 4594.5,3106.5C 4600.12,3092.64 4606.12,3078.97 4612.5,3065.5 Z"/></g>
<g><path style="opacity:1" fill="#b5e6fa" d="M 4224.5,3026.5 C 4224.5,3041.5 4224.5,3056.5 4224.5,3071.5C 4287.67,3071.17 4350.67,3071.5 4413.5,3072.5C 4350.17,3072.5 4286.83,3072.5 4223.5,3072.5C 4223.17,3056.99 4223.5,3041.66 4224.5,3026.5 Z"/></g>
<g><path style="opacity:1" fill="#fefefe" d="M 4929.5,3080.5 C 4943.27,3087.22 4956.94,3094.22 4970.5,3101.5C 4971.58,3102.36 4971.75,3103.36 4971,3104.5C 4929.08,3179.56 4868.58,3234.06 4789.5,3268C 4737.52,3290.53 4683.35,3303.36 4627,3306.5C 4622.85,3291.9 4619.02,3277.23 4615.5,3262.5C 4670.57,3256.92 4723.57,3243.42 4774.5,3222C 4827.95,3197.21 4872.45,3161.38 4908,3114.5C 4915.43,3103.31 4922.59,3091.97 4929.5,3080.5 Z"/></g>
<g><path style="opacity:1" fill="#fefefe" d="M 4156.5,3080.5 C 4171.02,3087.45 4185.35,3094.79 4199.5,3102.5C 4165.03,3166.81 4115.69,3216.31 4051.5,3251C 3989.83,3283.67 3924.17,3302.5 3854.5,3307.5C 3850.73,3292.59 3846.73,3277.76 3842.5,3263C 3892.47,3257.68 3940.8,3246.01 3987.5,3228C 4046.37,3203.98 4095.21,3166.82 4134,3116.5C 4142.15,3104.86 4149.65,3092.86 4156.5,3080.5 Z"/></g>
<g><path style="opacity:1" fill="#010203" d="M 4560.5,3394.5 C 4553.5,3394.5 4546.5,3394.5 4539.5,3394.5C 4538.51,3314.41 4524.35,3236.74 4497,3161.5C 4496.33,3136.5 4496.33,3111.5 4497,3086.5C 4528.71,3179.43 4549.71,3274.76 4560,3372.5C 4560.5,3379.83 4560.67,3387.16 4560.5,3394.5 Z"/></g>
<g><path style="opacity:1" fill="#80d6f7" d="M 4443.5,3117.5 C 4443.56,3116.96 4443.89,3116.62 4444.5,3116.5C 4445.5,3181.83 4445.83,3247.16 4445.5,3312.5C 4444.83,3247.5 4444.17,3182.5 4443.5,3117.5 Z"/></g>
<g><path style="opacity:1" fill="#010305" d="M 1441.5,3223.5 C 1471.79,3222.73 1493.96,3235.73 1508,3262.5C 1521.24,3289 1529.57,3317 1533,3346.5C 1539.11,3404.07 1540.11,3461.74 1536,3519.5C 1532.61,3523.03 1528.94,3523.37 1525,3520.5C 1524.87,3470.49 1524.2,3420.49 1523,3370.5C 1521.03,3344.98 1516.36,3319.98 1509,3295.5C 1503.68,3277 1493.51,3261.83 1478.5,3250C 1466.56,3243.79 1453.89,3241.79 1440.5,3244C 1419.25,3249.13 1399.58,3257.79 1381.5,3270C 1343.36,3295.79 1309.19,3326.29 1279,3361.5C 1275.61,3365.9 1272.61,3370.56 1270,3375.5C 1269.33,3377.17 1269.33,3378.83 1270,3380.5C 1275.75,3381.64 1281.58,3381.81 1287.5,3381C 1315.15,3376 1342.99,3372.5 1371,3370.5C 1385.98,3370.43 1400.48,3372.93 1414.5,3378C 1423.11,3385.28 1430.28,3393.78 1436,3403.5C 1460.25,3444.34 1484.25,3485.34 1508,3526.5C 1512.83,3532.67 1518.33,3538.17 1524.5,3543C 1529.05,3544.21 1533.72,3544.88 1538.5,3545C 1537.43,3548.16 1535.43,3550.49 1532.5,3552C 1528.57,3553.32 1524.57,3553.66 1520.5,3553C 1511.98,3549.32 1504.82,3543.82 1499,3536.5C 1482.83,3513.5 1468.16,3489.5 1455,3464.5C 1445.23,3447.96 1434.23,3432.29 1422,3417.5C 1401.87,3394.83 1376.7,3385.67 1346.5,3390C 1327.77,3391.84 1309.11,3394.17 1290.5,3397C 1280.83,3397.67 1271.17,3397.67 1261.5,3397C 1257.93,3396.3 1255.1,3394.47 1253,3391.5C 1252.33,3387.17 1252.33,3382.83 1253,3378.5C 1261.15,3360.2 1271.81,3343.54 1285,3328.5C 1313.31,3296.51 1345.47,3269.34 1381.5,3247C 1400.19,3235.48 1420.19,3227.64 1441.5,3223.5 Z"/></g>
<g><path style="opacity:1" fill="#fefefe" d="M 4539.5,3394.5 C 4546.5,3394.5 4553.5,3394.5 4560.5,3394.5C 4939.83,3394.5 5319.17,3394.5 5698.5,3394.5C 5698.5,3402.83 5698.5,3411.17 5698.5,3419.5C 5319.5,3419.5 4940.5,3419.5 4561.5,3419.5C 4554.17,3419.5 4546.83,3419.5 4539.5,3419.5C 4036.83,3419.5 3534.17,3419.5 3031.5,3419.5C 3031.5,3411.17 3031.5,3402.83 3031.5,3394.5C 3534.17,3394.5 4036.83,3394.5 4539.5,3394.5 Z"/></g>
<g><path style="opacity:1" fill="#010304" d="M 4539.5,3419.5 C 4546.83,3419.5 4554.17,3419.5 4561.5,3419.5C 4562.53,3466.54 4567.2,3513.21 4575.5,3559.5C 4567.38,3575.29 4561.72,3591.96 4558.5,3609.5C 4547.88,3546.75 4541.55,3483.42 4539.5,3419.5 Z"/></g>
<g><path style="opacity:1" fill="#fefefe" d="M 3119.5,3471.5 C 3150.17,3468.94 3176.17,3478.61 3197.5,3500.5C 3205.92,3509.25 3213.59,3518.58 3220.5,3528.5C 3209.17,3537.66 3197.67,3546.66 3186,3555.5C 3177.22,3543.72 3167.38,3532.88 3156.5,3523C 3141.18,3513.81 3125.51,3513.15 3109.5,3521C 3096.71,3530.43 3092.21,3542.93 3096,3558.5C 3099.88,3569.75 3106.38,3579.25 3115.5,3587C 3131.17,3598.67 3146.83,3610.33 3162.5,3622C 3179.33,3634.83 3194.17,3649.67 3207,3666.5C 3233.79,3710.84 3228.29,3750.67 3190.5,3786C 3158.82,3808.75 3124.82,3812.75 3088.5,3798C 3069.22,3788.06 3053.72,3773.89 3042,3755.5C 3037.58,3748.33 3033.41,3741 3029.5,3733.5C 3041.24,3725.77 3053.24,3718.44 3065.5,3711.5C 3073.09,3726.18 3082.76,3739.34 3094.5,3751C 3114.8,3767.55 3136.13,3768.89 3158.5,3755C 3174.2,3743.41 3180.37,3727.91 3177,3708.5C 3173.04,3697.55 3167.04,3687.88 3159,3679.5C 3137,3658.82 3113.83,3639.66 3089.5,3622C 3065.48,3603.8 3052.48,3579.64 3050.5,3549.5C 3053.72,3505.95 3076.72,3479.95 3119.5,3471.5 Z"/></g>
<g><path style="opacity:1" fill="#fefefe" d="M 4238.5,3471.5 C 4307.27,3467.64 4360.77,3493.97 4399,3550.5C 4422.08,3590.13 4428.75,3632.46 4419,3677.5C 4400.46,3745.37 4356.96,3787.54 4288.5,3804C 4213.94,3815.45 4155.1,3790.61 4112,3729.5C 4081.88,3677.54 4078.54,3623.87 4102,3568.5C 4130.09,3511.7 4175.59,3479.37 4238.5,3471.5 Z"/></g>
<g><path style="opacity:1" fill="#fefefe" d="M 4751.5,3639.5 C 4799.5,3639.5 4847.5,3639.5 4895.5,3639.5C 4895.5,3646.83 4895.5,3654.17 4895.5,3661.5C 4892.02,3716.68 4867.02,3758.52 4820.5,3787C 4787.01,3803.25 4751.68,3809.58 4714.5,3806C 4676.01,3802.79 4642.01,3788.96 4612.5,3764.5C 4596.46,3749.14 4583.12,3731.8 4572.5,3712.5C 4557.62,3679.58 4552.95,3645.25 4558.5,3609.5C 4561.72,3591.96 4567.38,3575.29 4575.5,3559.5C 4603.76,3510.46 4646.1,3481.63 4702.5,3473C 4772.49,3465.43 4831.82,3486.77 4880.5,3537C 4870.17,3547 4859.83,3557 4849.5,3567C 4848.5,3567.67 4847.5,3567.67 4846.5,3567C 4810.95,3529.48 4767.28,3512.14 4715.5,3515C 4665.57,3522.51 4630.07,3549.01 4609,3594.5C 4590.46,3654.22 4605.96,3703.06 4655.5,3741C 4702.99,3770.85 4751.66,3773.18 4801.5,3748C 4826.46,3732.53 4841.8,3710.36 4847.5,3681.5C 4815.5,3681.5 4783.5,3681.5 4751.5,3681.5C 4751.5,3667.5 4751.5,3653.5 4751.5,3639.5 Z"/></g>
<g><path style="opacity:1" fill="#8bd9f7" d="M 3415.5,3479.5 C 3355.5,3479.5 3295.5,3479.5 3235.5,3479.5C 3235.5,3493.5 3235.5,3507.5 3235.5,3521.5C 3234.5,3507.34 3234.17,3493.01 3234.5,3478.5C 3295,3478.17 3355.34,3478.5 3415.5,3479.5 Z"/></g>
<g><path style="opacity:1" fill="#fefefe" d="M 3415.5,3479.5 C 3415.5,3493.5 3415.5,3507.5 3415.5,3521.5C 3392.83,3521.5 3370.17,3521.5 3347.5,3521.5C 3346.5,3613.67 3346.17,3706 3346.5,3798.5C 3332.17,3798.5 3317.83,3798.5 3303.5,3798.5C 3303.83,3706 3303.5,3613.67 3302.5,3521.5C 3280.17,3521.5 3257.83,3521.5 3235.5,3521.5C 3235.5,3507.5 3235.5,3493.5 3235.5,3479.5C 3295.5,3479.5 3355.5,3479.5 3415.5,3479.5 Z"/></g>
<g><path style="opacity:1" fill="#fefefe" d="M 3438.5,3479.5 C 3452.5,3479.5 3466.5,3479.5 3480.5,3479.5C 3480.17,3551.34 3480.5,3623 3481.5,3694.5C 3478.88,3730.44 3494.88,3753.27 3529.5,3763C 3558.84,3769.34 3582.34,3760.5 3600,3736.5C 3609.04,3718.23 3612.54,3698.9 3610.5,3678.5C 3611.5,3612.34 3611.83,3546 3611.5,3479.5C 3625.5,3479.5 3639.5,3479.5 3653.5,3479.5C 3653.67,3551.5 3653.5,3623.5 3653,3695.5C 3651.85,3712.93 3648.51,3729.93 3643,3746.5C 3623.69,3786.5 3591.69,3806.5 3547,3806.5C 3510.16,3806.74 3480.16,3792.74 3457,3764.5C 3445.28,3746.65 3439.28,3726.98 3439,3705.5C 3438.5,3630.17 3438.33,3554.83 3438.5,3479.5 Z"/></g>
<g><path style="opacity:1" fill="#b7e6fa" d="M 3438.5,3479.5 C 3452.66,3478.5 3466.99,3478.17 3481.5,3478.5C 3481.5,3550.5 3481.5,3622.5 3481.5,3694.5C 3480.5,3623 3480.17,3551.34 3480.5,3479.5C 3466.5,3479.5 3452.5,3479.5 3438.5,3479.5 Z"/></g>
<g><path style="opacity:1" fill="#b6e6fa" d="M 3653.5,3479.5 C 3639.5,3479.5 3625.5,3479.5 3611.5,3479.5C 3611.83,3546 3611.5,3612.34 3610.5,3678.5C 3610.5,3611.83 3610.5,3545.17 3610.5,3478.5C 3625.01,3478.17 3639.34,3478.5 3653.5,3479.5 Z"/></g>
<g><path style="opacity:1" fill="#fefefe" d="M 3706.5,3479.5 C 3741.5,3479.33 3776.5,3479.5 3811.5,3480C 3840.33,3480.19 3867.99,3485.86 3894.5,3497C 3931.87,3516.38 3957.04,3546.22 3970,3586.5C 3980.92,3626.49 3979.92,3666.16 3967,3705.5C 3943.58,3764.21 3900.08,3795.04 3836.5,3798C 3793.17,3798.5 3749.83,3798.67 3706.5,3798.5C 3706.5,3692.17 3706.5,3585.83 3706.5,3479.5 Z"/></g>
<g><path style="opacity:1" fill="#b9e6fa" d="M 4052.5,3479.5 C 4038.5,3479.5 4024.5,3479.5 4010.5,3479.5C 4010.5,3585.83 4010.5,3692.17 4010.5,3798.5C 4010.17,3798.5 4009.83,3798.5 4009.5,3798.5C 4009.5,3691.83 4009.5,3585.17 4009.5,3478.5C 4024.01,3478.17 4038.34,3478.5 4052.5,3479.5 Z"/></g>
<g><path style="opacity:1" fill="#fefefe" d="M 4052.5,3479.5 C 4052.5,3585.83 4052.5,3692.17 4052.5,3798.5C 4038.5,3798.5 4024.5,3798.5 4010.5,3798.5C 4010.5,3692.17 4010.5,3585.83 4010.5,3479.5C 4024.5,3479.5 4038.5,3479.5 4052.5,3479.5 Z"/></g>
<g><path style="opacity:1" fill="#7fd5f8" d="M 4052.5,3479.5 C 4053.5,3586 4053.83,3692.67 4053.5,3799.5C 4038.66,3799.83 4023.99,3799.5 4009.5,3798.5C 4009.83,3798.5 4010.17,3798.5 4010.5,3798.5C 4024.5,3798.5 4038.5,3798.5 4052.5,3798.5C 4052.5,3692.17 4052.5,3585.83 4052.5,3479.5 Z"/></g>
<g><path style="opacity:1" fill="#47c4f3" d="M 4961.5,3479.5 C 4947.17,3479.5 4932.83,3479.5 4918.5,3479.5C 4918.5,3585.83 4918.5,3692.17 4918.5,3798.5C 4917.5,3692 4917.17,3585.33 4917.5,3478.5C 4932.34,3478.17 4947.01,3478.5 4961.5,3479.5 Z"/></g>
<g><path style="opacity:1" fill="#fefefe" d="M 4961.5,3479.5 C 4961.5,3522.5 4961.5,3565.5 4961.5,3608.5C 5009.5,3608.5 5057.5,3608.5 5105.5,3608.5C 5105.5,3565.5 5105.5,3522.5 5105.5,3479.5C 5119.83,3479.5 5134.17,3479.5 5148.5,3479.5C 5148.5,3585.83 5148.5,3692.17 5148.5,3798.5C 5134.17,3798.5 5119.83,3798.5 5105.5,3798.5C 5105.5,3749.17 5105.5,3699.83 5105.5,3650.5C 5057.5,3650.5 5009.5,3650.5 4961.5,3650.5C 4961.5,3699.83 4961.5,3749.17 4961.5,3798.5C 4947.17,3798.5 4932.83,3798.5 4918.5,3798.5C 4918.5,3692.17 4918.5,3585.83 4918.5,3479.5C 4932.83,3479.5 4947.17,3479.5 4961.5,3479.5 Z"/></g>
<g><path style="opacity:1" fill="#47c4f3" d="M 5105.5,3479.5 C 5119.99,3478.5 5134.66,3478.17 5149.5,3478.5C 5149.83,3585.33 5149.5,3692 5148.5,3798.5C 5148.5,3692.17 5148.5,3585.83 5148.5,3479.5C 5134.17,3479.5 5119.83,3479.5 5105.5,3479.5 Z"/></g>
<g><path style="opacity:1" fill="#fefefe" d="M 5183.5,3479.5 C 5197.5,3479.5 5211.5,3479.5 5225.5,3479.5C 5225.5,3585.83 5225.5,3692.17 5225.5,3798.5C 5211.5,3798.5 5197.5,3798.5 5183.5,3798.5C 5183.5,3692.17 5183.5,3585.83 5183.5,3479.5 Z"/></g>
<g><path style="opacity:1" fill="#b3e6fa" d="M 5183.5,3479.5 C 5197.66,3478.5 5211.99,3478.17 5226.5,3478.5C 5226.5,3585.5 5226.5,3692.5 5226.5,3799.5C 5211.99,3799.83 5197.66,3799.5 5183.5,3798.5C 5197.5,3798.5 5211.5,3798.5 5225.5,3798.5C 5225.5,3692.17 5225.5,3585.83 5225.5,3479.5C 5211.5,3479.5 5197.5,3479.5 5183.5,3479.5 Z"/></g>
<g><path style="opacity:1" fill="#fefefe" d="M 5261.5,3479.5 C 5289.84,3479.33 5318.17,3479.5 5346.5,3480C 5372.33,3480.05 5394.5,3488.88 5413,3506.5C 5439.6,3541 5440.27,3576 5415,3611.5C 5410.96,3615.71 5406.79,3619.71 5402.5,3623.5C 5448.37,3645.59 5465.54,3681.59 5454,3731.5C 5439.42,3770.73 5411.25,3792.9 5369.5,3798C 5333.5,3798.5 5297.5,3798.67 5261.5,3798.5C 5261.5,3692.17 5261.5,3585.83 5261.5,3479.5 Z"/></g>
<g><path style="opacity:1" fill="#94dbf9" d="M 5526.5,3756.5 C 5525.5,3664.33 5525.17,3572 5525.5,3479.5C 5511.5,3479.5 5497.5,3479.5 5483.5,3479.5C 5483.5,3585.83 5483.5,3692.17 5483.5,3798.5C 5482.5,3692 5482.17,3585.33 5482.5,3478.5C 5497.17,3478.5 5511.83,3478.5 5526.5,3478.5C 5526.5,3571.17 5526.5,3663.83 5526.5,3756.5 Z"/></g>
<g><path style="opacity:1" fill="#fefefe" d="M 5526.5,3756.5 C 5565.83,3756.5 5605.17,3756.5 5644.5,3756.5C 5644.5,3770.5 5644.5,3784.5 5644.5,3798.5C 5590.83,3798.5 5537.17,3798.5 5483.5,3798.5C 5483.5,3692.17 5483.5,3585.83 5483.5,3479.5C 5497.5,3479.5 5511.5,3479.5 5525.5,3479.5C 5525.17,3572 5525.5,3664.33 5526.5,3756.5 Z"/></g>
<g><path style="opacity:1" fill="#fefefe" d="M 5695.5,3479.5 C 5695.5,3585.83 5695.5,3692.17 5695.5,3798.5C 5681.17,3798.5 5666.83,3798.5 5652.5,3798.5C 5652.5,3692.17 5652.5,3585.83 5652.5,3479.5C 5666.83,3479.5 5681.17,3479.5 5695.5,3479.5 Z"/></g>
<g><path style="opacity:1" fill="#47c4f3" d="M 5695.5,3479.5 C 5696.5,3586 5696.83,3692.67 5696.5,3799.5C 5681.66,3799.83 5666.99,3799.5 5652.5,3798.5C 5666.83,3798.5 5681.17,3798.5 5695.5,3798.5C 5695.5,3692.17 5695.5,3585.83 5695.5,3479.5 Z"/></g>
<g><path style="opacity:1" fill="#02adef" d="M 4242.5,3513.5 C 4285.29,3511.49 4321.12,3526.15 4350,3557.5C 4375.93,3589.88 4384.59,3626.55 4376,3667.5C 4360.96,3723.29 4324.79,3755.46 4267.5,3764C 4214.35,3767.34 4173.85,3746.51 4146,3701.5C 4131.65,3674.06 4127.32,3645.06 4133,3614.5C 4147.65,3557.01 4184.15,3523.34 4242.5,3513.5 Z"/></g>
<g><path style="opacity:1" fill="#6ecff6" d="M 3302.5,3521.5 C 3303.5,3613.67 3303.83,3706 3303.5,3798.5C 3317.83,3798.5 3332.17,3798.5 3346.5,3798.5C 3346.17,3706 3346.5,3613.67 3347.5,3521.5C 3347.5,3614.17 3347.5,3706.83 3347.5,3799.5C 3332.5,3799.5 3317.5,3799.5 3302.5,3799.5C 3302.5,3706.83 3302.5,3614.17 3302.5,3521.5 Z"/></g>
<g><path style="opacity:1" fill="#0aadef" d="M 5303.5,3521.5 C 5317.84,3521.33 5332.17,3521.5 5346.5,3522C 5357.33,3522.94 5367.33,3526.28 5376.5,3532C 5387.97,3542.42 5391.8,3555.26 5388,3570.5C 5381.45,3591.37 5367.29,3603.21 5345.5,3606C 5331.53,3607.26 5317.53,3607.76 5303.5,3607.5C 5303.5,3578.83 5303.5,3550.17 5303.5,3521.5 Z"/></g>
<g><path style="opacity:1" fill="#01adef" d="M 3748.5,3521.5 C 3784.14,3519.79 3819.48,3522.29 3854.5,3529C 3899.78,3543.96 3925.95,3575.13 3933,3622.5C 3937.98,3656.67 3930.98,3688 3912,3716.5C 3893.34,3739.42 3869.17,3752.25 3839.5,3755C 3809.21,3757.2 3778.88,3758.04 3748.5,3757.5C 3748.5,3678.83 3748.5,3600.17 3748.5,3521.5 Z"/></g>
<g><path style="opacity:1" fill="#010304" d="M 1927.5,3608.5 C 1944.78,3607.89 1958.95,3614.22 1970,3627.5C 1985,3648.12 1996,3670.78 2003,3695.5C 2019.29,3751.05 2026.29,3807.72 2024,3865.5C 2018.72,3873.72 2011.22,3876.89 2001.5,3875C 1990.18,3873.51 1979.85,3869.51 1970.5,3863C 1955.96,3851.46 1943.13,3838.3 1932,3823.5C 1921.92,3811.4 1910.08,3801.57 1896.5,3794C 1884.2,3789.62 1871.53,3786.95 1858.5,3786C 1830.83,3785.04 1803.16,3784.04 1775.5,3783C 1766.63,3782.31 1759.13,3778.81 1753,3772.5C 1752.21,3768.07 1752.54,3763.74 1754,3759.5C 1762.05,3743.79 1772.05,3729.45 1784,3716.5C 1817.25,3679.67 1854.75,3648.17 1896.5,3622C 1906.59,3616.59 1916.92,3612.09 1927.5,3608.5 Z"/></g>
<g><path style="opacity:1" fill="#00acee" d="M 1927.5,3631.5 C 1933.26,3631.15 1938.93,3631.65 1944.5,3633C 1949.29,3636.12 1953.79,3639.62 1958,3643.5C 1974.99,3667.09 1986.99,3693.09 1994,3721.5C 2005.56,3766.35 2011.06,3811.85 2010.5,3858C 1988.82,3857.08 1970.99,3848.25 1957,3831.5C 1948.33,3819.5 1939.67,3807.5 1931,3795.5C 1922.06,3784.78 1910.56,3778.95 1896.5,3778C 1886.52,3776.52 1876.52,3775.19 1866.5,3774C 1838.13,3772.07 1809.8,3769.74 1781.5,3767C 1771.49,3766.03 1769.32,3761.53 1775,3753.5C 1803.73,3711.11 1839.89,3676.61 1883.5,3650C 1897.45,3641.85 1912.12,3635.68 1927.5,3631.5 Z"/></g>
<g><path style="opacity:1" fill="#82d6f7" d="M 4751.5,3639.5 C 4799.66,3638.5 4848,3638.17 4896.5,3638.5C 4896.83,3646.35 4896.49,3654.02 4895.5,3661.5C 4895.5,3654.17 4895.5,3646.83 4895.5,3639.5C 4847.5,3639.5 4799.5,3639.5 4751.5,3639.5 Z"/></g>
<g><path style="opacity:1" fill="#83d7f7" d="M 5335.5,3651.5 C 5325.17,3651.5 5314.83,3651.5 5304.5,3651.5C 5304.5,3686.5 5304.5,3721.5 5304.5,3756.5C 5303.5,3721.34 5303.17,3686 5303.5,3650.5C 5314.35,3650.17 5325.01,3650.51 5335.5,3651.5 Z"/></g>
<g><path style="opacity:1" fill="#02adef" d="M 5335.5,3651.5 C 5354.6,3650.52 5372.6,3654.36 5389.5,3663C 5409.57,3676.31 5417.07,3694.81 5412,3718.5C 5406.65,3733.85 5396.49,3744.68 5381.5,3751C 5373.05,3753.74 5364.38,3755.41 5355.5,3756C 5338.5,3756.5 5321.5,3756.67 5304.5,3756.5C 5304.5,3721.5 5304.5,3686.5 5304.5,3651.5C 5314.83,3651.5 5325.17,3651.5 5335.5,3651.5 Z"/></g>
<g><path style="opacity:1" fill="#010304" d="M 4572.5,3712.5 C 4583.12,3731.8 4596.46,3749.14 4612.5,3764.5C 4628.87,3927.08 4638.7,4090.08 4642,4253.5C 4645.84,4274.68 4647.17,4296.02 4646,4317.5C 4644.47,4330.02 4638.47,4339.68 4628,4346.5C 4628.88,4262.38 4626.22,4178.38 4620,4094.5C 4608.37,3966.65 4592.53,3839.31 4572.5,3712.5 Z"/></g>
<g><path style="opacity:1" fill="#010406" d="M 2374.5,3720.5 C 2389.2,3721.54 2393.36,3728.87 2387,3742.5C 2380.83,3753.51 2376.33,3765.18 2373.5,3777.5C 2367.44,3772.66 2365.11,3766.33 2366.5,3758.5C 2366.67,3755.17 2366.83,3751.83 2367,3748.5C 2369.51,3739.13 2372.01,3729.8 2374.5,3720.5 Z"/></g>
<g><path style="opacity:1" fill="#020406" d="M 2381.5,3785.5 C 2388.83,3785.5 2396.17,3785.5 2403.5,3785.5C 2399.15,3810.13 2397.48,3834.97 2398.5,3860C 2398.77,3894.2 2399.94,3928.36 2402,3962.5C 2402.67,3993.17 2402.67,4023.83 2402,4054.5C 2400.45,4080.9 2396.45,4106.9 2390,4132.5C 2382.85,4016.93 2380.02,3901.27 2381.5,3785.5 Z"/></g>
<g><path style="opacity:1" fill="#010304" d="M 2388.5,4150.5 C 2398.25,4151.97 2402.08,4157.63 2400,4167.5C 2398.89,4171.73 2397.22,4175.73 2395,4179.5C 2387.33,4190.5 2379.67,4201.5 2372,4212.5C 2365.86,4220.12 2366.36,4227.28 2373.5,4234C 2381.1,4232.71 2388.77,4231.71 2396.5,4231C 2389.2,4249.88 2381.7,4268.72 2374,4287.5C 2370.56,4297.59 2368.23,4307.92 2367,4318.5C 2366.57,4332.93 2366.41,4347.26 2366.5,4361.5C 2358.69,4357.24 2353.19,4350.91 2350,4342.5C 2341.31,4315.2 2344.65,4289.53 2360,4265.5C 2362.19,4263.31 2364.36,4261.14 2366.5,4259C 2361.55,4252.6 2358.05,4245.43 2356,4237.5C 2355.22,4229.45 2355.56,4221.45 2357,4213.5C 2367.33,4192.36 2377.83,4171.36 2388.5,4150.5 Z"/></g>
<g><path style="opacity:1" fill="#020608" d="M 2374.5,4361.5 C 2378.25,4363.77 2380.75,4367.11 2382,4371.5C 2385.29,4385.97 2382.12,4398.8 2372.5,4410C 2368.79,4412.13 2364.79,4412.97 2360.5,4412.5C 2363.32,4400.91 2365.82,4389.25 2368,4377.5C 2369.49,4371.86 2371.66,4366.52 2374.5,4361.5 Z"/></g>
<g><path style="opacity:1" fill="#020507" d="M 2374.5,4441.5 C 2382.04,4445.59 2384.87,4451.93 2383,4460.5C 2378.72,4471.72 2373.39,4482.39 2367,4492.5C 2363.61,4490.77 2361.27,4488.11 2360,4484.5C 2358.51,4479.59 2358.17,4474.59 2359,4469.5C 2362.36,4459.11 2367.53,4449.77 2374.5,4441.5 Z"/></g>
</svg>
