<?xml version="1.0" encoding="UTF-8"?>
<!DOCTYPE svg PUBLIC "-//W3C//DTD SVG 1.1//EN" "http://www.w3.org/Graphics/SVG/1.1/DTD/svg11.dtd">
<svg xmlns="http://www.w3.org/2000/svg" version="1.1" width="225px" height="225px" style="shape-rendering:geometricPrecision; text-rendering:geometricPrecision; image-rendering:optimizeQuality; fill-rule:evenodd; clip-rule:evenodd" xmlns:xlink="http://www.w3.org/1999/xlink">
<g><path style="opacity:1" fill="#fcfcfc" d="M -0.5,-0.5 C 34.5,-0.5 69.5,-0.5 104.5,-0.5C 55.7164,5.4377 22.5498,31.4377 5,77.5C 2.36852,86.4769 0.535185,95.4769 -0.5,104.5C -0.5,69.5 -0.5,34.5 -0.5,-0.5 Z"/></g>
<g><path style="opacity:1" fill="#030303" d="M 104.5,-0.5 C 109.5,-0.5 114.5,-0.5 119.5,-0.5C 167.882,5.36958 201.049,31.0362 219,76.5C 221.737,86.1329 223.571,95.7996 224.5,105.5C 224.5,109.833 224.5,114.167 224.5,118.5C 216.167,180.833 180.833,216.167 118.5,224.5C 114.167,224.5 109.833,224.5 105.5,224.5C 52.426,218.608 18.2593,189.942 3,138.5C 1.50113,131.07 0.334461,123.737 -0.5,116.5C -0.5,112.5 -0.5,108.5 -0.5,104.5C 0.535185,95.4769 2.36852,86.4769 5,77.5C 22.5498,31.4377 55.7164,5.4377 104.5,-0.5 Z"/></g>
<g><path style="opacity:1" fill="#fcfcfc" d="M 119.5,-0.5 C 154.5,-0.5 189.5,-0.5 224.5,-0.5C 224.5,34.8333 224.5,70.1667 224.5,105.5C 223.571,95.7996 221.737,86.1329 219,76.5C 201.049,31.0362 167.882,5.36958 119.5,-0.5 Z"/></g>
<g><path style="opacity:1" fill="#f7f7f7" d="M 47.5,41.5 C 53.8641,41.0005 57.5308,43.8339 58.5,50C 58.5924,52.8139 57.5924,55.1473 55.5,57C 60.5422,61.8422 65.5422,66.6755 70.5,71.5C 68.3742,75.7109 66.5409,80.0442 65,84.5C 59.4687,78.634 53.6353,73.134 47.5,68C 45.053,69.0301 42.3863,69.8635 39.5,70.5C 34.2087,69.8755 31.2087,66.8755 30.5,61.5C 31.9562,55.7015 35.6229,53.0348 41.5,53.5C 40.8709,48.0911 42.8709,44.0911 47.5,41.5 Z"/></g>
<g><path style="opacity:1" fill="#f9f9f9" d="M 169.5,42.5 C 178.506,40.8475 182.839,44.5142 182.5,53.5C 191.365,53.8474 194.532,58.1807 192,66.5C 190.291,69.3872 187.791,70.7205 184.5,70.5C 181.493,70.2259 178.826,69.3926 176.5,68C 171.282,73.7202 165.616,78.8869 159.5,83.5C 157.836,79.505 156.17,75.505 154.5,71.5C 158.833,66.5 163.5,61.8333 168.5,57.5C 164.331,52.1871 164.664,47.1871 169.5,42.5 Z"/></g>
<g><path style="opacity:1" fill="#f8cd23" d="M 102.5,49.5 C 124.682,46.7588 141.349,54.9255 152.5,74C 125.827,74.8332 99.1604,74.6665 72.5,73.5C 79.2734,61.386 89.2734,53.386 102.5,49.5 Z"/></g>
<g><path style="opacity:1" fill="#1e1816" d="M 93.5,64.5 C 94.3764,64.3691 95.0431,64.7025 95.5,65.5C 93.8333,68.1667 92.1667,70.8333 90.5,73.5C 89.9822,70.157 90.9822,67.157 93.5,64.5 Z"/></g>
<g><path style="opacity:1" fill="#151114" d="M 88.5,61.5 C 89.3764,61.3691 90.0431,61.7025 90.5,62.5C 87.925,65.319 85.5917,68.319 83.5,71.5C 82.4173,70.635 82.2506,69.635 83,68.5C 84.6665,66.0043 86.4998,63.671 88.5,61.5 Z"/></g>
<g><path style="opacity:1" fill="#171416" d="M 129.5,66.5 C 130.496,66.4142 131.329,66.7476 132,67.5C 132.798,69.2588 132.631,70.9255 131.5,72.5C 130.232,70.6957 129.565,68.6957 129.5,66.5 Z"/></g>
<g><path style="opacity:1" fill="#110f12" d="M 98.5,66.5 C 100.896,67.8275 100.896,69.4942 98.5,71.5C 97.5661,69.9052 97.5661,68.2385 98.5,66.5 Z"/></g>
<g><path style="opacity:1" fill="#141113" d="M 136.5,63.5 C 141.122,65.4284 143.122,68.7617 142.5,73.5C 140.048,70.394 138.048,67.0607 136.5,63.5 Z"/></g>
<g><path style="opacity:1" fill="#aa0b16" d="M 70.5,77.5 C 84.3293,76.8334 98.3293,76.5001 112.5,76.5C 126.85,76.5007 140.85,77.1674 154.5,78.5C 126.574,77.5089 98.5739,77.1756 70.5,77.5 Z"/></g>
<g><path style="opacity:1" fill="#fd0113" d="M 70.5,77.5 C 98.5739,77.1756 126.574,77.5089 154.5,78.5C 156.118,81.1709 156.785,84.1709 156.5,87.5C 127.167,87.5 97.8333,87.5 68.5,87.5C 68.5,86.1667 68.5,84.8333 68.5,83.5C 68.595,81.2143 69.2616,79.2143 70.5,77.5 Z"/></g>
<g><path style="opacity:1" fill="#b10b12" d="M 68.5,83.5 C 68.5,84.8333 68.5,86.1667 68.5,87.5C 97.8333,87.5 127.167,87.5 156.5,87.5C 127.005,88.4981 97.338,88.8314 67.5,88.5C 67.2155,86.5853 67.5489,84.9187 68.5,83.5 Z"/></g>
<g><path style="opacity:1" fill="#e9c324" d="M 46.5,90.5 C 90.8346,90.3333 135.168,90.5 179.5,91C 180.833,92.6667 180.833,94.3333 179.5,96C 135.167,96.6667 90.8333,96.6667 46.5,96C 43.9824,94.1899 43.9824,92.3566 46.5,90.5 Z"/></g>
<g><path style="opacity:1" fill="#f7f7f7" d="M 68.5,98.5 C 97.8333,98.5 127.167,98.5 156.5,98.5C 149.816,127.637 131.483,140.137 101.5,136C 82.5176,130.518 71.5176,118.018 68.5,98.5 Z"/></g>
<g><path style="opacity:1" fill="#070707" d="M 89.5,101.5 C 101.876,100.044 107.376,105.377 106,117.5C 97.2287,128.742 89.562,128.076 83,115.5C 82.2092,109.417 84.3759,104.75 89.5,101.5 Z"/></g>
<g><path style="opacity:1" fill="#060606" d="M 125.5,101.5 C 137.372,100.536 142.538,105.87 141,117.5C 135.926,126.248 129.26,127.582 121,121.5C 116.543,113.332 118.043,106.665 125.5,101.5 Z"/></g>
<g><path style="opacity:1" fill="#0b0b0b" d="M 109.5,125.5 C 111.527,125.338 113.527,125.505 115.5,126C 116.554,127.388 116.72,128.888 116,130.5C 112.543,132.232 109.709,131.566 107.5,128.5C 108.193,127.482 108.859,126.482 109.5,125.5 Z"/></g>
<g><path style="opacity:1" fill="#fbfbfb" d="M -0.5,116.5 C 0.334461,123.737 1.50113,131.07 3,138.5C 18.2593,189.942 52.426,218.608 105.5,224.5C 70.1667,224.5 34.8333,224.5 -0.5,224.5C -0.5,188.5 -0.5,152.5 -0.5,116.5 Z"/></g>
<g><path style="opacity:1" fill="#fcfcfc" d="M 224.5,118.5 C 224.5,153.833 224.5,189.167 224.5,224.5C 189.167,224.5 153.833,224.5 118.5,224.5C 180.833,216.167 216.167,180.833 224.5,118.5 Z"/></g>
<g><path style="opacity:1" fill="#eeeeee" d="M 88.5,134.5 C 92.0353,135.265 95.3686,136.599 98.5,138.5C 97.8333,140.5 97.1667,142.5 96.5,144.5C 93.0921,144.912 89.9254,143.912 87,141.5C 86.3911,138.935 86.8911,136.601 88.5,134.5 Z"/></g>
<g><path style="opacity:1" fill="#f0f0f0" d="M 133.5,134.5 C 136.734,136.305 137.734,138.972 136.5,142.5C 133.481,144.262 130.314,145.595 127,146.5C 125.682,143.594 125.348,140.594 126,137.5C 128.672,136.718 131.172,135.718 133.5,134.5 Z"/></g>
<g><path style="opacity:1" fill="#f6f6f6" d="M 84.5,134.5 C 85.0431,134.56 85.3764,134.893 85.5,135.5C 83.0759,142.28 81.5759,149.28 81,156.5C 77.3176,160.015 73.8176,163.682 70.5,167.5C 74.2862,171.325 74.4528,175.325 71,179.5C 64.9135,184.096 59.9135,183.096 56,176.5C 55.2571,174.559 55.4238,172.726 56.5,171C 46.7038,170.582 43.5371,165.749 47,156.5C 51.9538,152.323 56.6204,152.657 61,157.5C 69.338,150.328 77.1714,142.662 84.5,134.5 Z"/></g>
<g><path style="opacity:1" fill="#ebebeb" d="M 99.5,138.5 C 103.534,138.505 107.534,138.838 111.5,139.5C 111.5,142.5 111.5,145.5 111.5,148.5C 107.418,148.656 103.418,148.156 99.5,147C 99.1727,144.315 99.1727,141.482 99.5,138.5 Z"/></g>
<g><path style="opacity:1" fill="#eeeeee" d="M 116.5,138.5 C 118.833,138.5 121.167,138.5 123.5,138.5C 123.963,141.482 124.296,144.482 124.5,147.5C 120.865,148.114 117.198,148.448 113.5,148.5C 113.5,145.5 113.5,142.5 113.5,139.5C 114.791,139.737 115.791,139.404 116.5,138.5 Z"/></g>
<g><path style="opacity:1" fill="#f6f6f6" d="M 138.5,135.5 C 146.78,142.443 154.78,149.776 162.5,157.5C 170.272,151.133 175.605,152.8 178.5,162.5C 177.519,168.72 174.019,171.387 168,170.5C 168.221,179.284 164.054,183.117 155.5,182C 149.817,177.583 149.151,172.583 153.5,167C 149.367,163.869 145.534,160.369 142,156.5C 141.984,149.28 140.817,142.28 138.5,135.5 Z"/></g>
<g><path style="opacity:1" fill="#f1f1f1" d="M 85.5,143.5 C 88.33,145.079 91.33,146.412 94.5,147.5C 95.48,150.086 95.8134,152.753 95.5,155.5C 91.6096,154.806 88.1096,153.14 85,150.5C 84.4436,148.115 84.6103,145.782 85.5,143.5 Z"/></g>
<g><path style="opacity:1" fill="#f2f2f2" d="M 136.5,144.5 C 139.247,145.973 140.081,148.306 139,151.5C 135.441,153.864 131.608,155.531 127.5,156.5C 127.336,153.813 127.503,151.146 128,148.5C 131.047,147.438 133.88,146.105 136.5,144.5 Z"/></g>
<g><path style="opacity:1" fill="#f0f0f0" d="M 98.5,149.5 C 102.785,150.295 107.119,150.628 111.5,150.5C 111.5,153.5 111.5,156.5 111.5,159.5C 106.994,159.852 102.661,159.185 98.5,157.5C 97.3855,154.844 97.3855,152.177 98.5,149.5 Z"/></g>
<g><path style="opacity:1" fill="#f3f3f3" d="M 121.5,149.5 C 122.822,149.33 123.989,149.663 125,150.5C 125.497,153.146 125.664,155.813 125.5,158.5C 121.534,159.162 117.534,159.495 113.5,159.5C 113.5,156.5 113.5,153.5 113.5,150.5C 116.385,150.806 119.052,150.473 121.5,149.5 Z"/></g>
<g><path style="opacity:1" fill="#f7f7f7" d="M 84.5,153.5 C 102.409,163.761 120.576,164.094 139,154.5C 139.882,168.635 133.382,177.468 119.5,181C 107.526,183.303 97.3589,180.137 89,171.5C 85.345,166.036 83.845,160.036 84.5,153.5 Z"/></g>
</svg>
